<svg width="28" height="28" viewBox="0 0 28 28" fill="none" xmlns="http://www.w3.org/2000/svg">
<path d="M11.4222 18.8684L11.4205 18.8632L11.088 18.7547C9.50662 18.1957 8.11922 17.194 7.091 15.8689C6.25955 14.7982 5.68824 13.549 5.42214 12.2198C5.15604 10.8905 5.20243 9.51765 5.55765 8.2094C5.91286 6.90116 6.56719 5.69334 7.46902 4.68122C8.37085 3.6691 9.4955 2.88036 10.7543 2.37721C12.0131 1.87407 13.3715 1.67028 14.7225 1.78192C16.0735 1.89357 17.3801 2.31759 18.5392 3.02055C19.6984 3.7235 20.6783 4.68616 21.4017 5.83259C22.1252 6.97903 22.5724 8.27787 22.708 9.62668C22.7552 10.1079 22.358 10.4999 21.875 10.4999C21.392 10.4999 21.0053 10.1062 20.9475 9.62668C20.7913 8.38913 20.3073 7.2158 19.5455 6.22809C18.7837 5.24037 17.7718 4.47416 16.6145 4.00872C15.4573 3.54329 14.1966 3.39554 12.9631 3.58077C11.7296 3.766 10.5679 4.27748 9.59841 5.06228C8.62887 5.84708 7.88665 6.8767 7.44855 8.04459C7.01045 9.21248 6.89237 10.4762 7.10655 11.7051C7.32072 12.9339 7.85936 14.0832 8.66673 15.034C9.4741 15.9848 10.5209 16.7026 11.6988 17.1132C11.9959 16.5713 12.4746 16.1516 13.0508 15.928C13.6269 15.7044 14.2634 15.6913 14.8483 15.8909C15.4332 16.0905 15.9289 16.49 16.2481 17.0192C16.5674 17.5483 16.6897 18.1732 16.5935 18.7836C16.4973 19.3941 16.1889 19.9511 15.7224 20.3565C15.256 20.7619 14.6614 20.9897 14.0435 20.9998C13.4256 21.0099 12.8239 20.8017 12.3444 20.4119C11.8649 20.022 11.5384 19.4754 11.4222 18.8684ZM10.0345 20.2247C8.32056 19.5249 6.8221 18.3845 5.691 16.9189C5.4035 17.3501 5.25006 17.8567 5.25 18.3749V19.2499C5.25 22.6992 8.505 26.2499 14 26.2499C19.495 26.2499 22.75 22.6992 22.75 19.2499V18.3749C22.75 17.6787 22.4734 17.0111 21.9812 16.5188C21.4889 16.0265 20.8212 15.7499 20.125 15.7499H17.5C17.867 16.2401 18.1271 16.8019 18.2633 17.3989C18.3995 17.996 18.4089 18.615 18.2908 19.2159C18.1727 19.8167 17.9298 20.3861 17.5778 20.8872C17.2257 21.3883 16.7724 21.8099 16.2472 22.1247C15.7219 22.4396 15.1364 22.6406 14.5286 22.7149C13.9207 22.7892 13.304 22.735 12.7184 22.5559C12.1328 22.3768 11.5913 22.0768 11.129 21.6752C10.6667 21.2736 10.2938 20.7795 10.0345 20.2247ZM19.25 10.4999C19.25 8.90043 18.5343 7.46718 17.4055 6.50468C16.8544 6.03786 16.2129 5.68978 15.5211 5.48221C14.8293 5.27463 14.1021 5.21203 13.3851 5.29831C12.668 5.3846 11.9764 5.61791 11.3536 5.98366C10.7308 6.34941 10.1902 6.83974 9.76555 7.42396C9.3409 8.00819 9.04136 8.67375 8.88567 9.37902C8.72998 10.0843 8.72149 10.8141 8.86073 11.5228C8.99996 12.2315 9.28393 12.9039 9.69487 13.4978C10.1058 14.0918 10.6349 14.5945 11.249 14.9747C12.0272 14.3438 12.9982 13.9991 14 13.9982C15.0013 13.9981 15.9724 14.3416 16.751 14.9712C17.5147 14.5013 18.1453 13.8437 18.5828 13.061C19.0203 12.2783 19.25 11.3966 19.25 10.4999Z" fill="#1C48C1"/>
</svg>
