<svg width="172" height="172" viewBox="0 0 172 172" fill="none" xmlns="http://www.w3.org/2000/svg">
<g style="mix-blend-mode:overlay">
<path d="M159.899 97.6282L158.531 95.2523L160.471 93.312" stroke="white" stroke-width="4.51" stroke-miterlimit="10" stroke-linecap="round"/>
<path d="M166.181 87.5976L168.121 85.6573L166.181 83.717" stroke="white" stroke-width="4.51" stroke-miterlimit="10" stroke-linecap="round"/>
<path d="M160.471 78.0027L158.531 76.0625L159.899 73.6865" stroke="white" stroke-width="4.51" stroke-miterlimit="10" stroke-linecap="round"/>
<path d="M163.942 66.6904L165.314 64.3145L162.938 62.9417" stroke="white" stroke-width="4.51" stroke-miterlimit="10" stroke-linecap="round"/>
<path d="M155.937 58.8991L153.561 57.5313L154.276 54.8818" stroke="white" stroke-width="4.51" stroke-miterlimit="10" stroke-linecap="round"/>
<path d="M156.363 47.0752L157.072 44.4257L154.423 43.7114" stroke="white" stroke-width="4.51" stroke-miterlimit="10" stroke-linecap="round"/>
<path d="M146.621 41.6242L143.971 40.9099V38.1692" stroke="white" stroke-width="4.51" stroke-miterlimit="10" stroke-linecap="round"/>
<path d="M143.972 30.0892V27.3435H141.226" stroke="white" stroke-width="4.51" stroke-miterlimit="10" stroke-linecap="round"/>
<path d="M133.146 27.3433H130.4L129.691 24.6938" stroke="white" stroke-width="4.51" stroke-miterlimit="10" stroke-linecap="round"/>
<path d="M127.598 16.8873L126.889 14.2378L124.24 14.947" stroke="white" stroke-width="4.51" stroke-miterlimit="10" stroke-linecap="round"/>
<path d="M116.433 17.0393L113.784 17.7485L112.411 15.3726" stroke="white" stroke-width="4.51" stroke-miterlimit="10" stroke-linecap="round"/>
<path d="M108.373 8.37641L107 6.00049L104.624 7.37336" stroke="white" stroke-width="4.51" stroke-miterlimit="10" stroke-linecap="round"/>
<path d="M97.6282 11.4109L95.2523 12.7838L93.312 10.8435" stroke="white" stroke-width="4.51" stroke-miterlimit="10" stroke-linecap="round"/>
<path d="M87.5975 5.12922L85.6573 3.18896L83.717 5.12922" stroke="white" stroke-width="4.51" stroke-miterlimit="10" stroke-linecap="round"/>
<path d="M78.0032 10.8435L76.0629 12.7838L73.687 11.4109" stroke="white" stroke-width="4.51" stroke-miterlimit="10" stroke-linecap="round"/>
<path d="M66.6905 7.37336L64.3095 6.00049L62.9417 8.37641" stroke="white" stroke-width="4.51" stroke-miterlimit="10" stroke-linecap="round"/>
<path d="M58.8991 15.3726L57.5262 17.7485L54.8767 17.0393" stroke="white" stroke-width="4.51" stroke-miterlimit="10" stroke-linecap="round"/>
<path d="M47.0706 14.947L44.4211 14.2378L43.7119 16.8873" stroke="white" stroke-width="4.51" stroke-miterlimit="10" stroke-linecap="round"/>
<path d="M41.6191 24.6938L40.9099 27.3433H38.1692" stroke="white" stroke-width="4.51" stroke-miterlimit="10" stroke-linecap="round"/>
<path d="M30.089 27.3435H27.3433V30.0892" stroke="white" stroke-width="4.51" stroke-miterlimit="10" stroke-linecap="round"/>
<path d="M27.3433 38.1692V40.9099L24.6938 41.6242" stroke="white" stroke-width="4.51" stroke-miterlimit="10" stroke-linecap="round"/>
<path d="M16.8875 43.7114L14.238 44.4257L14.9473 47.0752" stroke="white" stroke-width="4.51" stroke-miterlimit="10" stroke-linecap="round"/>
<path d="M17.0393 54.8818L17.7485 57.5313L15.3726 58.8991" stroke="white" stroke-width="4.51" stroke-miterlimit="10" stroke-linecap="round"/>
<path d="M8.37666 62.9417L6.00073 64.3145L7.36853 66.6904" stroke="white" stroke-width="4.51" stroke-miterlimit="10" stroke-linecap="round"/>
<path d="M11.4106 73.6865L12.7835 76.0625L10.8433 78.0027" stroke="white" stroke-width="4.51" stroke-miterlimit="10" stroke-linecap="round"/>
<path d="M5.12922 83.717L3.18896 85.6573L5.12922 87.5976" stroke="white" stroke-width="4.51" stroke-miterlimit="10" stroke-linecap="round"/>
<path d="M10.8433 93.312L12.7835 95.2523L11.4106 97.6282" stroke="white" stroke-width="4.51" stroke-miterlimit="10" stroke-linecap="round"/>
<path d="M7.36853 104.624L6.00073 107L8.37666 108.373" stroke="white" stroke-width="4.51" stroke-miterlimit="10" stroke-linecap="round"/>
<path d="M15.3726 112.416L17.7485 113.784L17.0393 116.433" stroke="white" stroke-width="4.51" stroke-miterlimit="10" stroke-linecap="round"/>
<path d="M14.9473 124.24L14.238 126.889L16.8875 127.603" stroke="white" stroke-width="4.51" stroke-miterlimit="10" stroke-linecap="round"/>
<path d="M24.6938 129.691L27.3433 130.405V133.146" stroke="white" stroke-width="4.51" stroke-miterlimit="10" stroke-linecap="round"/>
<path d="M27.3433 141.226V143.972H30.089" stroke="white" stroke-width="4.51" stroke-miterlimit="10" stroke-linecap="round"/>
<path d="M38.1692 143.971H40.9099L41.6191 146.621" stroke="white" stroke-width="4.51" stroke-miterlimit="10" stroke-linecap="round"/>
<path d="M43.7119 154.427L44.4211 157.077L47.0706 156.368" stroke="white" stroke-width="4.51" stroke-miterlimit="10" stroke-linecap="round"/>
<path d="M54.8767 154.276L57.5262 153.566L58.8991 155.942" stroke="white" stroke-width="4.51" stroke-miterlimit="10" stroke-linecap="round"/>
<path d="M62.9417 162.938L64.3095 165.314L66.6905 163.941" stroke="white" stroke-width="4.51" stroke-miterlimit="10" stroke-linecap="round"/>
<path d="M73.687 159.904L76.0629 158.531L78.0032 160.471" stroke="white" stroke-width="4.51" stroke-miterlimit="10" stroke-linecap="round"/>
<path d="M83.717 166.186L85.6573 168.126L87.5975 166.186" stroke="white" stroke-width="4.51" stroke-miterlimit="10" stroke-linecap="round"/>
<path d="M93.312 160.471L95.2523 158.531L97.6282 159.904" stroke="white" stroke-width="4.51" stroke-miterlimit="10" stroke-linecap="round"/>
<path d="M104.624 163.941L107 165.314L108.373 162.938" stroke="white" stroke-width="4.51" stroke-miterlimit="10" stroke-linecap="round"/>
<path d="M112.411 155.942L113.784 153.566L116.433 154.276" stroke="white" stroke-width="4.51" stroke-miterlimit="10" stroke-linecap="round"/>
<path d="M124.24 156.368L126.889 157.077L127.598 154.427" stroke="white" stroke-width="4.51" stroke-miterlimit="10" stroke-linecap="round"/>
<path d="M129.691 146.621L130.4 143.971H133.146" stroke="white" stroke-width="4.51" stroke-miterlimit="10" stroke-linecap="round"/>
<path d="M141.226 143.972H143.972V141.226" stroke="white" stroke-width="4.51" stroke-miterlimit="10" stroke-linecap="round"/>
<path d="M143.971 133.146V130.405L146.621 129.691" stroke="white" stroke-width="4.51" stroke-miterlimit="10" stroke-linecap="round"/>
<path d="M154.423 127.603L157.072 126.889L156.363 124.24" stroke="white" stroke-width="4.51" stroke-miterlimit="10" stroke-linecap="round"/>
<path d="M154.276 116.433L153.561 113.784L155.937 112.416" stroke="white" stroke-width="4.51" stroke-miterlimit="10" stroke-linecap="round"/>
<path d="M162.938 108.373L165.314 107L163.942 104.624" stroke="white" stroke-width="4.51" stroke-miterlimit="10" stroke-linecap="round"/>
</g>
</svg>
