<svg width="222" height="222" viewBox="0 0 222 222" fill="none" xmlns="http://www.w3.org/2000/svg">
<g filter="url(#filter0_d_955_3887)">
<path d="M186.877 116.939L196.872 106.939L186.877 96.9384L193.944 84.6941L181.7 77.6271L185.362 63.9693L171.705 60.3117V46.1727H157.566L153.908 32.5149L140.25 36.1725L133.178 23.9281L120.934 31.0002L110.939 21L100.938 31.0002L88.6941 23.9281L81.6271 36.1725L67.9693 32.5149L64.3066 46.1727H50.1727V60.3117L36.5149 63.9693L40.1725 77.6271L27.9281 84.6941L35.0002 96.9384L25 106.939L35.0002 116.939L27.9281 129.178L40.1725 136.25L36.5149 149.908L50.1727 153.566V167.705H64.3066L67.9693 181.362L81.6271 177.705L88.6941 189.949L100.938 182.877L110.939 192.877L120.934 182.877L133.178 189.949L140.25 177.705L153.908 181.362L157.566 167.705H171.705V153.566L185.362 149.908L181.7 136.25L193.944 129.178L186.877 116.939Z" fill="#FFC200"/>
</g>
<g style="mix-blend-mode:overlay">
<path d="M185.18 118.909L183.812 116.534L185.753 114.593" stroke="white" stroke-width="4.51" stroke-miterlimit="10" stroke-linecap="round"/>
<path d="M191.462 108.879L193.402 106.939L191.462 104.998" stroke="white" stroke-width="4.51" stroke-miterlimit="10" stroke-linecap="round"/>
<path d="M185.753 99.284L183.812 97.3437L185.18 94.9678" stroke="white" stroke-width="4.51" stroke-miterlimit="10" stroke-linecap="round"/>
<path d="M189.222 87.9717L190.595 85.5958L188.219 84.2229" stroke="white" stroke-width="4.51" stroke-miterlimit="10" stroke-linecap="round"/>
<path d="M181.218 80.1804L178.842 78.8126L179.556 76.1631" stroke="white" stroke-width="4.51" stroke-miterlimit="10" stroke-linecap="round"/>
<path d="M181.643 68.3565L182.353 65.707L179.703 64.9927" stroke="white" stroke-width="4.51" stroke-miterlimit="10" stroke-linecap="round"/>
<path d="M171.901 62.9054L169.252 62.1911V59.4504" stroke="white" stroke-width="4.51" stroke-miterlimit="10" stroke-linecap="round"/>
<path d="M169.253 51.3705V48.6248H166.507" stroke="white" stroke-width="4.51" stroke-miterlimit="10" stroke-linecap="round"/>
<path d="M158.427 48.6246H155.681L154.972 45.9751" stroke="white" stroke-width="4.51" stroke-miterlimit="10" stroke-linecap="round"/>
<path d="M152.879 38.1685L152.17 35.519L149.521 36.2283" stroke="white" stroke-width="4.51" stroke-miterlimit="10" stroke-linecap="round"/>
<path d="M141.714 38.3205L139.064 39.0297L137.691 36.6538" stroke="white" stroke-width="4.51" stroke-miterlimit="10" stroke-linecap="round"/>
<path d="M133.654 29.6577L132.281 27.2817L129.905 28.6546" stroke="white" stroke-width="4.51" stroke-miterlimit="10" stroke-linecap="round"/>
<path d="M122.909 32.6921L120.533 34.065L118.593 32.1248" stroke="white" stroke-width="4.51" stroke-miterlimit="10" stroke-linecap="round"/>
<path d="M112.879 26.4105L110.938 24.4702L108.998 26.4105" stroke="white" stroke-width="4.51" stroke-miterlimit="10" stroke-linecap="round"/>
<path d="M103.284 32.1248L101.344 34.065L98.9678 32.6921" stroke="white" stroke-width="4.51" stroke-miterlimit="10" stroke-linecap="round"/>
<path d="M91.9715 28.6546L89.5905 27.2817L88.2227 29.6577" stroke="white" stroke-width="4.51" stroke-miterlimit="10" stroke-linecap="round"/>
<path d="M84.1796 36.6538L82.8067 39.0297L80.1572 38.3205" stroke="white" stroke-width="4.51" stroke-miterlimit="10" stroke-linecap="round"/>
<path d="M72.3509 36.2283L69.7014 35.519L68.9922 38.1685" stroke="white" stroke-width="4.51" stroke-miterlimit="10" stroke-linecap="round"/>
<path d="M66.9001 45.9751L66.1909 48.6246H63.4502" stroke="white" stroke-width="4.51" stroke-miterlimit="10" stroke-linecap="round"/>
<path d="M55.3698 48.6248H52.624V51.3705" stroke="white" stroke-width="4.51" stroke-miterlimit="10" stroke-linecap="round"/>
<path d="M52.6241 59.4504V62.1911L49.9746 62.9054" stroke="white" stroke-width="4.51" stroke-miterlimit="10" stroke-linecap="round"/>
<path d="M42.168 64.9927L39.5186 65.707L40.2278 68.3565" stroke="white" stroke-width="4.51" stroke-miterlimit="10" stroke-linecap="round"/>
<path d="M42.32 76.1631L43.0292 78.8126L40.6533 80.1804" stroke="white" stroke-width="4.51" stroke-miterlimit="10" stroke-linecap="round"/>
<path d="M33.6572 84.2229L31.2812 85.5958L32.6491 87.9717" stroke="white" stroke-width="4.51" stroke-miterlimit="10" stroke-linecap="round"/>
<path d="M36.6914 94.9678L38.0643 97.3437L36.124 99.284" stroke="white" stroke-width="4.51" stroke-miterlimit="10" stroke-linecap="round"/>
<path d="M30.41 104.998L28.4697 106.939L30.41 108.879" stroke="white" stroke-width="4.51" stroke-miterlimit="10" stroke-linecap="round"/>
<path d="M36.124 114.593L38.0643 116.534L36.6914 118.909" stroke="white" stroke-width="4.51" stroke-miterlimit="10" stroke-linecap="round"/>
<path d="M32.6491 125.906L31.2812 128.281L33.6572 129.654" stroke="white" stroke-width="4.51" stroke-miterlimit="10" stroke-linecap="round"/>
<path d="M40.6533 133.697L43.0292 135.065L42.32 137.714" stroke="white" stroke-width="4.51" stroke-miterlimit="10" stroke-linecap="round"/>
<path d="M40.2278 145.521L39.5186 148.17L42.168 148.885" stroke="white" stroke-width="4.51" stroke-miterlimit="10" stroke-linecap="round"/>
<path d="M49.9746 150.972L52.6241 151.686V154.427" stroke="white" stroke-width="4.51" stroke-miterlimit="10" stroke-linecap="round"/>
<path d="M52.624 162.507V165.253H55.3698" stroke="white" stroke-width="4.51" stroke-miterlimit="10" stroke-linecap="round"/>
<path d="M63.4502 165.253H66.1909L66.9001 167.902" stroke="white" stroke-width="4.51" stroke-miterlimit="10" stroke-linecap="round"/>
<path d="M68.9922 175.709L69.7014 178.358L72.3509 177.649" stroke="white" stroke-width="4.51" stroke-miterlimit="10" stroke-linecap="round"/>
<path d="M80.1572 175.557L82.8067 174.848L84.1796 177.224" stroke="white" stroke-width="4.51" stroke-miterlimit="10" stroke-linecap="round"/>
<path d="M88.2227 184.219L89.5905 186.595L91.9715 185.223" stroke="white" stroke-width="4.51" stroke-miterlimit="10" stroke-linecap="round"/>
<path d="M98.9678 181.185L101.344 179.812L103.284 181.753" stroke="white" stroke-width="4.51" stroke-miterlimit="10" stroke-linecap="round"/>
<path d="M108.998 187.467L110.938 189.407L112.879 187.467" stroke="white" stroke-width="4.51" stroke-miterlimit="10" stroke-linecap="round"/>
<path d="M118.593 181.753L120.533 179.812L122.909 181.185" stroke="white" stroke-width="4.51" stroke-miterlimit="10" stroke-linecap="round"/>
<path d="M129.905 185.223L132.281 186.595L133.654 184.219" stroke="white" stroke-width="4.51" stroke-miterlimit="10" stroke-linecap="round"/>
<path d="M137.691 177.224L139.064 174.848L141.714 175.557" stroke="white" stroke-width="4.51" stroke-miterlimit="10" stroke-linecap="round"/>
<path d="M149.521 177.649L152.17 178.358L152.879 175.709" stroke="white" stroke-width="4.51" stroke-miterlimit="10" stroke-linecap="round"/>
<path d="M154.972 167.902L155.681 165.253H158.427" stroke="white" stroke-width="4.51" stroke-miterlimit="10" stroke-linecap="round"/>
<path d="M166.507 165.253H169.253V162.507" stroke="white" stroke-width="4.51" stroke-miterlimit="10" stroke-linecap="round"/>
<path d="M169.252 154.427V151.686L171.901 150.972" stroke="white" stroke-width="4.51" stroke-miterlimit="10" stroke-linecap="round"/>
<path d="M179.703 148.885L182.353 148.17L181.643 145.521" stroke="white" stroke-width="4.51" stroke-miterlimit="10" stroke-linecap="round"/>
<path d="M179.556 137.714L178.842 135.065L181.218 133.697" stroke="white" stroke-width="4.51" stroke-miterlimit="10" stroke-linecap="round"/>
<path d="M188.219 129.654L190.595 128.281L189.222 125.906" stroke="white" stroke-width="4.51" stroke-miterlimit="10" stroke-linecap="round"/>
</g>
<path d="M94.4676 89.8772H94.2996C91.8356 89.8772 89.8756 89.2332 88.2796 87.7212C87.0756 89.2052 85.3396 89.9612 83.0156 89.9612C79.1796 89.9612 76.6876 87.4412 76.6876 83.6052C76.6876 82.6532 76.8276 81.7852 77.1356 81.0012H75.3436C73.1596 81.0012 72.0676 82.4292 72.0676 85.2572V94.5252H68.2036V84.6412C68.2036 80.1052 71.0316 77.1932 75.1756 77.1932H83.1556C86.4036 77.1932 88.7276 79.0132 89.3716 81.8412C90.0996 85.0612 91.2756 86.0692 94.2716 86.1252H94.4676V89.8772ZM85.7036 83.4932C85.7036 81.6172 84.6956 80.3852 83.1276 80.3852C81.5036 80.3852 80.5236 81.7572 80.5236 83.6052C80.5236 85.4812 81.5036 86.7972 82.9316 86.7972H83.2116C84.8636 86.7972 85.7036 85.7052 85.7036 83.4932ZM100.063 89.8772H94.0712V86.1252H100.063V89.8772ZM127.958 89.8772H98.978V86.1252H102.506C103.794 86.1252 104.494 85.4532 104.494 83.4372V78.5372H108.414V82.1492C110.878 79.0132 114.126 77.1372 117.262 77.1372C121.854 77.1372 124.542 80.3852 124.906 86.1252H127.958V89.8772ZM120.818 86.1252L120.846 85.6212C120.846 82.7372 119.418 80.5532 116.954 80.5532C114.07 80.5532 111.494 82.4292 109.338 86.1252H120.818ZM139.106 75.0652H135.606V71.8452H139.106V75.0652ZM147.198 89.8772H127.178V86.1252H143.026C142.858 82.9612 140.45 80.4972 137.174 80.4972C135.494 80.4972 133.59 81.3652 132.47 82.5132C132.078 81.9812 131.434 81.1132 130.51 79.8532C132.414 77.8652 134.738 76.8852 137.454 76.8852C143.866 76.9132 147.198 81.2812 147.198 88.5892V89.8772ZM105.238 121.877H87.514C85.694 124.957 83.174 126.525 79.842 126.525C74.914 126.525 70.994 122.381 70.994 117.005V109.165H74.914V116.641C74.914 120.253 76.762 122.885 79.842 122.885C82.866 122.885 84.742 120.337 84.742 116.641V109.165H88.69V114.373C91.182 111.097 94.486 109.137 97.678 109.137C102.69 109.137 105.378 112.973 105.378 119.301C105.378 120.141 105.322 121.009 105.238 121.877ZM101.262 118.125L101.29 117.621C101.29 114.737 99.862 112.553 97.398 112.553C94.514 112.553 91.938 114.429 89.782 118.125H101.262ZM116.907 121.877H113.211C110.215 121.877 108.479 120.141 108.479 117.257V103.817H112.399V115.213C112.399 117.117 112.875 118.125 115.759 118.125H116.907V121.877ZM122.348 121.877H116.356V118.125H122.348V121.877ZM127.899 121.877H121.907V118.125H127.899V121.877ZM139.106 107.065H135.606V103.845H139.106V107.065ZM147.198 121.877H127.178V118.125H143.026C142.858 114.961 140.45 112.497 137.174 112.497C135.494 112.497 133.59 113.365 132.47 114.513C132.078 113.981 131.434 113.113 130.51 111.853C132.414 109.865 134.738 108.885 137.454 108.885C143.866 108.913 147.198 113.281 147.198 120.589V121.877Z" fill="white"/>
<path d="M76.9774 149.007C76.18 149.007 75.5604 148.791 75.1184 148.357C74.685 147.915 74.4684 147.339 74.4684 146.628C74.4684 145.666 74.9537 144.687 75.9244 143.69L76.2884 143.3H77.7704L78.0954 143.612C78.598 144.106 78.9534 144.579 79.1614 145.029C79.378 145.471 79.4864 145.939 79.4864 146.433C79.4864 146.823 79.43 147.179 79.3174 147.499C79.2047 147.811 79.04 148.08 78.8234 148.305C78.6067 148.531 78.3424 148.704 78.0304 148.825C77.727 148.947 77.376 149.007 76.9774 149.007ZM77.1074 147.538C77.4974 147.538 77.8094 147.443 78.0434 147.252C78.286 147.053 78.4074 146.802 78.4074 146.498C78.4074 146.29 78.3337 146.074 78.1864 145.848C78.0477 145.614 77.7964 145.333 77.4324 145.003L76.8994 144.496H76.8084L76.3534 145.003C76.076 145.307 75.8724 145.562 75.7424 145.77C75.6124 145.978 75.5474 146.199 75.5474 146.433C75.5474 146.737 75.6644 146.997 75.8984 147.213C76.141 147.43 76.4574 147.538 76.8474 147.538H77.1074ZM77.8224 141.974C77.623 141.974 77.4627 141.914 77.3414 141.792C77.2287 141.671 77.1724 141.485 77.1724 141.233C77.1724 140.973 77.2287 140.787 77.3414 140.674C77.4627 140.553 77.623 140.492 77.8224 140.492H78.0174C78.2167 140.492 78.377 140.553 78.4984 140.674C78.6197 140.787 78.6804 140.973 78.6804 141.233C78.6804 141.485 78.6197 141.671 78.4984 141.792C78.377 141.914 78.2167 141.974 78.0174 141.974H77.8224ZM75.9894 141.974C75.79 141.974 75.6297 141.914 75.5084 141.792C75.3957 141.671 75.3394 141.485 75.3394 141.233C75.3394 140.973 75.3957 140.787 75.5084 140.674C75.6297 140.553 75.79 140.492 75.9894 140.492H76.1844C76.3837 140.492 76.544 140.553 76.6654 140.674C76.7867 140.787 76.8474 140.973 76.8474 141.233C76.8474 141.485 76.7867 141.671 76.6654 141.792C76.544 141.914 76.3837 141.974 76.1844 141.974H75.9894ZM81.7367 148.877C81.2947 148.877 80.948 148.76 80.6967 148.526C80.4454 148.292 80.3197 147.928 80.3197 147.434V146.485H81.4767V147.408H83.5567C83.964 147.408 84.2414 147.326 84.3887 147.161C84.5447 146.997 84.6227 146.789 84.6227 146.537C84.6227 146.277 84.523 146 84.3237 145.705C84.1244 145.411 83.782 145.029 83.2967 144.561L81.9707 143.196L83.0237 142.13L84.2197 143.43C84.5057 143.734 84.744 144.02 84.9347 144.288C85.134 144.548 85.2944 144.804 85.4157 145.055C85.537 145.298 85.6237 145.545 85.6757 145.796C85.7364 146.039 85.7667 146.303 85.7667 146.589C85.7667 147.309 85.563 147.872 85.1557 148.279C84.7484 148.678 84.172 148.877 83.4267 148.877H81.7367ZM86.668 150.528H87.539C88.6223 150.528 89.4196 150.312 89.931 149.878C90.451 149.445 90.711 148.86 90.711 148.123V147.811H90.646C90.3773 148.531 89.8226 148.89 88.982 148.89C88.28 148.89 87.7383 148.7 87.357 148.318C86.9756 147.928 86.785 147.382 86.785 146.68C86.785 146.264 86.8456 145.874 86.967 145.51C87.097 145.146 87.2703 144.834 87.487 144.574C87.7123 144.306 87.9766 144.093 88.28 143.937C88.5833 143.781 88.9126 143.703 89.268 143.703C90.0566 143.703 90.672 144.037 91.114 144.704C91.5646 145.363 91.79 146.286 91.79 147.473C91.79 148.895 91.4346 150.004 90.724 150.801C90.022 151.599 88.9776 151.997 87.591 151.997H86.668V150.528ZM89.307 147.408C89.671 147.408 89.9613 147.382 90.178 147.33C90.4033 147.278 90.581 147.196 90.711 147.083C90.6936 146.511 90.542 146.052 90.256 145.705C89.9786 145.359 89.6103 145.185 89.151 145.185C88.7523 145.185 88.436 145.307 88.202 145.549C87.968 145.792 87.851 146.108 87.851 146.498C87.851 146.819 87.9506 147.053 88.15 147.2C88.358 147.339 88.657 147.408 89.047 147.408H89.307ZM94.1273 148.877C93.6853 148.877 93.3386 148.76 93.0873 148.526C92.836 148.292 92.7103 147.928 92.7103 147.434V146.485H93.8673V147.408H95.6353C96.0946 147.408 96.411 147.369 96.5843 147.291C96.7576 147.213 96.8443 147.066 96.8443 146.849C96.8443 146.754 96.8226 146.637 96.7793 146.498C96.736 146.351 96.6753 146.165 96.5973 145.939L95.3883 142.572L96.6233 142.13L97.9493 145.809C98.062 146.13 98.166 146.394 98.2613 146.602C98.3653 146.802 98.4693 146.962 98.5733 147.083C98.6773 147.205 98.7856 147.291 98.8983 147.343C99.0196 147.387 99.1583 147.408 99.3143 147.408H99.6653V148.565L99.3403 148.877C99.0543 148.877 98.803 148.856 98.5863 148.812C98.3696 148.76 98.1746 148.682 98.0013 148.578C97.8366 148.466 97.685 148.318 97.5463 148.136C97.4163 147.954 97.2863 147.725 97.1563 147.447L97.0913 147.46C97.0133 147.972 96.84 148.336 96.5713 148.552C96.3026 148.769 95.891 148.877 95.3363 148.877H94.1273ZM99.3589 147.72L99.6709 147.408H100.308C100.733 147.408 101.123 147.4 101.478 147.382C101.833 147.365 102.18 147.326 102.518 147.265C102.856 147.196 103.203 147.101 103.558 146.979C103.913 146.849 104.308 146.68 104.741 146.472L105.638 146.043V145.978L103.636 145.549L101.257 144.964V146.017H100.1V145.016C100.1 144.548 100.213 144.202 100.438 143.976C100.672 143.742 100.997 143.625 101.413 143.625C101.526 143.625 101.656 143.638 101.803 143.664C101.959 143.69 102.206 143.747 102.544 143.833L105.43 144.574C106.262 144.791 106.977 144.899 107.575 144.899H107.809V146.368H106.86V146.433C106.86 146.797 106.942 147.053 107.107 147.2C107.272 147.339 107.54 147.408 107.913 147.408H108.342V148.565L108.03 148.877C107.311 148.877 106.778 148.73 106.431 148.435C106.093 148.132 105.902 147.642 105.859 146.966L105.196 147.382C104.641 147.729 104.147 148.002 103.714 148.201C103.289 148.401 102.891 148.552 102.518 148.656C102.145 148.752 101.781 148.812 101.426 148.838C101.079 148.864 100.707 148.877 100.308 148.877H99.3589V147.72ZM109.811 148.136C109.611 148.405 109.373 148.596 109.096 148.708C108.818 148.821 108.463 148.877 108.03 148.877V147.72L108.342 147.408C108.671 147.408 108.909 147.339 109.057 147.2C109.213 147.053 109.356 146.806 109.486 146.459L109.85 145.523C110.058 144.986 110.331 144.557 110.669 144.236C111.015 143.907 111.479 143.742 112.06 143.742C112.77 143.742 113.316 144.046 113.698 144.652C114.079 145.25 114.27 146.091 114.27 147.174V147.681L113.295 149.111L109.811 148.136ZM110.422 146.771L113.152 147.538V147.174C113.152 146.559 113.035 146.078 112.801 145.731C112.567 145.385 112.242 145.211 111.826 145.211C111.522 145.211 111.275 145.302 111.085 145.484C110.903 145.658 110.751 145.9 110.63 146.212L110.422 146.771ZM120.814 149.007C120.017 149.007 119.397 148.791 118.955 148.357C118.522 147.915 118.305 147.339 118.305 146.628C118.305 145.666 118.791 144.687 119.761 143.69L120.125 143.3H121.607L121.932 143.612C122.435 144.106 122.79 144.579 122.998 145.029C123.215 145.471 123.323 145.939 123.323 146.433C123.323 146.823 123.267 147.179 123.154 147.499C123.042 147.811 122.877 148.08 122.66 148.305C122.444 148.531 122.179 148.704 121.867 148.825C121.564 148.947 121.213 149.007 120.814 149.007ZM120.944 147.538C121.334 147.538 121.646 147.443 121.88 147.252C122.123 147.053 122.244 146.802 122.244 146.498C122.244 146.29 122.171 146.074 122.023 145.848C121.885 145.614 121.633 145.333 121.269 145.003L120.736 144.496H120.645L120.19 145.003C119.913 145.307 119.709 145.562 119.579 145.77C119.449 145.978 119.384 146.199 119.384 146.433C119.384 146.737 119.501 146.997 119.735 147.213C119.978 147.43 120.294 147.538 120.684 147.538H120.944ZM121.659 141.974C121.46 141.974 121.3 141.914 121.178 141.792C121.066 141.671 121.009 141.485 121.009 141.233C121.009 140.973 121.066 140.787 121.178 140.674C121.3 140.553 121.46 140.492 121.659 140.492H121.854C122.054 140.492 122.214 140.553 122.335 140.674C122.457 140.787 122.517 140.973 122.517 141.233C122.517 141.485 122.457 141.671 122.335 141.792C122.214 141.914 122.054 141.974 121.854 141.974H121.659ZM119.826 141.974C119.627 141.974 119.467 141.914 119.345 141.792C119.233 141.671 119.176 141.485 119.176 141.233C119.176 140.973 119.233 140.787 119.345 140.674C119.467 140.553 119.627 140.492 119.826 140.492H120.021C120.221 140.492 120.381 140.553 120.502 140.674C120.624 140.787 120.684 140.973 120.684 141.233C120.684 141.485 120.624 141.671 120.502 141.792C120.381 141.914 120.221 141.974 120.021 141.974H119.826ZM122.987 150.528H123.481C123.923 150.528 124.291 150.472 124.586 150.359C124.88 150.247 125.119 150.086 125.301 149.878C125.483 149.679 125.613 149.436 125.691 149.15C125.769 148.864 125.808 148.544 125.808 148.188C125.808 147.954 125.795 147.712 125.769 147.46C125.743 147.209 125.708 146.958 125.665 146.706L125.392 145.133L126.51 144.925L126.666 145.874L128.889 145.51V144.405H130.02V146.472C130.02 146.836 130.102 147.083 130.267 147.213C130.44 147.343 130.722 147.408 131.112 147.408H131.541V148.565L131.216 148.877H131.151C130.397 148.877 129.842 148.73 129.487 148.435C129.14 148.132 128.945 147.634 128.902 146.94L126.861 147.278C126.878 147.443 126.891 147.599 126.9 147.746C126.908 147.894 126.913 148.037 126.913 148.175C126.913 148.713 126.848 149.211 126.718 149.67C126.596 150.138 126.397 150.546 126.12 150.892C125.842 151.239 125.487 151.508 125.054 151.698C124.62 151.898 124.1 151.997 123.494 151.997H122.987V150.528ZM130.241 143.079C130.041 143.079 129.881 143.019 129.76 142.897C129.647 142.776 129.591 142.59 129.591 142.338C129.591 142.078 129.647 141.892 129.76 141.779C129.881 141.658 130.041 141.597 130.241 141.597H130.436C130.635 141.597 130.795 141.658 130.917 141.779C131.038 141.892 131.099 142.078 131.099 142.338C131.099 142.59 131.038 142.776 130.917 142.897C130.795 143.019 130.635 143.079 130.436 143.079H130.241ZM128.408 143.079C128.208 143.079 128.048 143.019 127.927 142.897C127.814 142.776 127.758 142.59 127.758 142.338C127.758 142.078 127.814 141.892 127.927 141.779C128.048 141.658 128.208 141.597 128.408 141.597H128.603C128.802 141.597 128.962 141.658 129.084 141.779C129.205 141.892 129.266 142.078 129.266 142.338C129.266 142.59 129.205 142.776 129.084 142.897C128.962 143.019 128.802 143.079 128.603 143.079H128.408ZM131.224 147.72L131.536 147.408H133.213L133.239 147.343C132.459 146.676 132.069 145.892 132.069 144.99C132.069 144.626 132.125 144.284 132.238 143.963C132.359 143.643 132.528 143.361 132.745 143.118C132.962 142.876 133.217 142.685 133.512 142.546C133.815 142.408 134.149 142.338 134.513 142.338C134.877 142.338 135.206 142.408 135.501 142.546C135.804 142.685 136.06 142.876 136.268 143.118C136.485 143.352 136.654 143.634 136.775 143.963C136.896 144.284 136.957 144.626 136.957 144.99C136.957 145.883 136.567 146.667 135.787 147.343L135.813 147.408H137.503V148.565L137.191 148.877H137.035C136.576 148.877 136.134 148.825 135.709 148.721C135.293 148.609 134.894 148.427 134.513 148.175C134.14 148.427 133.742 148.609 133.317 148.721C132.892 148.825 132.455 148.877 132.004 148.877H131.224V147.72ZM134.513 147.109C134.955 146.867 135.297 146.589 135.54 146.277C135.783 145.965 135.904 145.601 135.904 145.185C135.904 144.769 135.778 144.436 135.527 144.184C135.284 143.933 134.968 143.807 134.578 143.807H134.435C134.045 143.807 133.724 143.933 133.473 144.184C133.23 144.436 133.109 144.769 133.109 145.185C133.109 145.601 133.23 145.965 133.473 146.277C133.724 146.589 134.071 146.867 134.513 147.109ZM134.409 141.012C134.21 141.012 134.049 140.952 133.928 140.83C133.815 140.709 133.759 140.523 133.759 140.271C133.759 140.011 133.815 139.825 133.928 139.712C134.049 139.591 134.21 139.53 134.409 139.53H134.604C134.803 139.53 134.964 139.591 135.085 139.712C135.206 139.825 135.267 140.011 135.267 140.271C135.267 140.523 135.206 140.709 135.085 140.83C134.964 140.952 134.803 141.012 134.604 141.012H134.409ZM137.191 147.72L137.503 147.408H137.958C138.339 147.408 138.604 147.326 138.751 147.161C138.907 146.997 138.985 146.737 138.985 146.381V139.257H140.207V146.381C140.207 147.239 140.034 147.872 139.687 148.279C139.34 148.678 138.764 148.877 137.958 148.877H137.191V147.72Z" fill="white"/>
<defs>
<filter id="filter0_d_955_3887" x="0" y="0" width="221.872" height="221.877" filterUnits="userSpaceOnUse" color-interpolation-filters="sRGB">
<feFlood flood-opacity="0" result="BackgroundImageFix"/>
<feColorMatrix in="SourceAlpha" type="matrix" values="0 0 0 0 0 0 0 0 0 0 0 0 0 0 0 0 0 0 127 0" result="hardAlpha"/>
<feOffset dy="4"/>
<feGaussianBlur stdDeviation="12.5"/>
<feComposite in2="hardAlpha" operator="out"/>
<feColorMatrix type="matrix" values="0 0 0 0 0 0 0 0 0 0 0 0 0 0 0 0 0 0 0.1 0"/>
<feBlend mode="normal" in2="BackgroundImageFix" result="effect1_dropShadow_955_3887"/>
<feBlend mode="normal" in="SourceGraphic" in2="effect1_dropShadow_955_3887" result="shape"/>
</filter>
</defs>
</svg>
