<svg width="24" height="24" viewBox="0 0 24 24" fill="none" xmlns="http://www.w3.org/2000/svg">
<g clip-path="url(#clip0_79_30495)">
<path d="M15.2345 11.672C15.2726 11.7065 15.3106 11.741 15.3499 11.7765C15.9182 12.3117 16.3017 13.0149 16.7155 13.6698C16.8531 13.8877 16.9925 14.1043 17.1329 14.3204C17.3586 14.6679 17.5811 15.0173 17.803 15.3671C17.953 15.6033 18.1042 15.8385 18.2575 16.0726C18.9786 17.1764 19.4613 18.2391 19.1976 19.5911C18.9904 20.5193 18.4282 21.3607 17.631 21.879C16.7155 22.4494 15.698 22.6533 14.6381 22.418C14.3271 22.3334 14.0278 22.2104 13.7275 22.0944C11.9735 21.4189 10.1136 21.4796 8.37317 22.1544C7.28968 22.5743 6.25392 22.6441 5.15875 22.1921C4.2794 21.78 3.60792 21.0463 3.2345 20.1563C2.90277 19.1883 2.89643 18.2074 3.30133 17.2598C3.50214 16.8507 3.73249 16.4663 3.9845 16.087C4.0468 15.9924 4.10906 15.8977 4.17126 15.803C4.20259 15.7553 4.23392 15.7077 4.2662 15.6585C4.41256 15.4345 4.55606 15.2086 4.69934 14.9825C4.9096 14.651 5.12101 14.3203 5.33521 13.9913C5.45602 13.8054 5.57504 13.6185 5.69269 13.4305C6.45478 12.215 6.45478 12.215 6.9845 11.7188C7.02111 11.6818 7.05773 11.6449 7.09546 11.6068C9.35189 9.37042 12.989 9.55121 15.2345 11.672Z" fill="#FFC200"/>
<path d="M11.2353 2.057C11.3534 2.14887 11.4663 2.24416 11.578 2.34374C11.6102 2.37208 11.6425 2.40042 11.6756 2.42962C12.4384 3.14424 12.8621 4.17636 12.9067 5.21117C12.9341 6.3866 12.6686 7.42536 11.9062 8.34374C11.8747 8.38543 11.8747 8.38543 11.8426 8.42797C11.3587 9.04668 10.5862 9.41479 9.8259 9.54217C8.92388 9.65018 8.03584 9.41455 7.31242 8.85937C6.46027 8.13472 5.91255 7.12217 5.81242 5.99999C5.7463 4.76842 6.00233 3.6103 6.82572 2.65154C7.97696 1.4116 9.802 1.05288 11.2353 2.057Z" fill="#FFC200"/>
<path d="M18.6499 3.94571C18.7665 4.04822 18.8762 4.15425 18.9844 4.26559C19.0282 4.30792 19.0282 4.30792 19.0728 4.35111C19.7277 5.02957 19.9474 6.00877 19.9316 6.923C19.8916 8.01422 19.4116 9.01681 18.6357 9.77641C17.9608 10.3972 17.1281 10.7241 16.2074 10.7005C15.4361 10.6435 14.6987 10.3428 14.1786 9.75748C13.4446 8.86927 13.2181 7.88165 13.3125 6.74997C13.4372 5.77219 13.9292 4.78807 14.6978 4.15914C15.8588 3.27134 17.4216 3.01236 18.6499 3.94571Z" fill="#FFC200"/>
<path d="M4.74561 6.77903C4.88832 6.90452 5.02275 7.03683 5.15632 7.17198C5.18762 7.20279 5.21892 7.23361 5.25117 7.26536C5.92272 7.97337 6.21614 8.99812 6.19929 9.95445C6.14953 10.679 5.93215 11.3342 5.48445 11.9063C5.44964 11.9547 5.41484 12.003 5.37898 12.0528C4.85485 12.6008 4.18141 12.8851 3.4344 12.9358C2.49672 12.947 1.6865 12.5498 1.02473 11.9071C0.271251 11.1375 -0.0318843 10.1367 -0.0219824 9.08439C0.00309934 8.24184 0.298553 7.47298 0.899301 6.87315C1.96152 5.88312 3.62313 5.83882 4.74561 6.77903Z" fill="#FFC200"/>
<path d="M22.999 10.0727C23.5354 10.5241 23.8785 11.1732 24.0001 11.8594C24.0757 12.9423 23.8886 13.9574 23.1616 14.7987C23.1289 14.8342 23.0962 14.8697 23.0626 14.9063C23.0275 14.9457 22.9924 14.9851 22.9562 15.0257C22.3106 15.7141 21.404 16.1104 20.461 16.1427C19.6466 16.1125 18.9364 15.831 18.3751 15.2344C17.8365 14.6335 17.6044 13.9033 17.6154 13.1013C17.6786 12.0346 18.1152 11.1276 18.8901 10.3862C20.0562 9.39104 21.7145 9.15813 22.999 10.0727Z" fill="#FFC200"/>
</g>
<defs>
<clipPath id="clip0_79_30495">
<rect width="24" height="24" fill="white"/>
</clipPath>
</defs>
</svg>
