<svg width="326" height="21" viewBox="0 0 326 21" fill="none" xmlns="http://www.w3.org/2000/svg">
<mask id="mask0_6_2" style="mask-type:alpha" maskUnits="userSpaceOnUse" x="0" y="0" width="326" height="21">
<rect width="326" height="21" fill="#D9D9D9"/>
</mask>
<g mask="url(#mask0_6_2)">
<g opacity="0.5">
<rect x="-84" y="3" width="103" height="5" fill="#003200"/>
<rect x="-84" y="18" width="103" height="5" fill="#003200"/>
<rect x="-3.69938" y="34.9218" width="32.5744" height="3" transform="rotate(-75 -3.69938 34.9218)" fill="#003200"/>
<rect x="7.62928" y="34.9218" width="32.5744" height="3" transform="rotate(-75 7.62928 34.9218)" fill="#003200"/>
<rect x="19" y="3" width="103" height="5" fill="#003200"/>
<rect x="19" y="18" width="103" height="5" fill="#003200"/>
<rect x="20" y="34.9218" width="32.5744" height="3" transform="rotate(-75 20 34.9218)" fill="#003200"/>
<rect x="31.3287" y="34.9218" width="32.5744" height="3" transform="rotate(-75 31.3287 34.9218)" fill="#003200"/>
<rect x="42.6573" y="34.9218" width="32.5744" height="3" transform="rotate(-75 42.6573 34.9218)" fill="#003200"/>
<rect x="53.986" y="34.9218" width="32.5744" height="3" transform="rotate(-75 53.986 34.9218)" fill="#003200"/>
<rect x="65.3146" y="34.9218" width="32.5744" height="3" transform="rotate(-75 65.3146 34.9218)" fill="#003200"/>
<rect x="76.6433" y="34.9218" width="32.5744" height="3" transform="rotate(-75 76.6433 34.9218)" fill="#003200"/>
<rect x="87.972" y="34.9218" width="32.5744" height="3" transform="rotate(-75 87.972 34.9218)" fill="#003200"/>
<rect x="99.3006" y="34.9218" width="32.5744" height="3" transform="rotate(-75 99.3006 34.9218)" fill="#003200"/>
<rect x="110.629" y="34.9218" width="32.5744" height="3" transform="rotate(-75 110.629 34.9218)" fill="#003200"/>
<rect x="122" y="3" width="103" height="5" fill="#003200"/>
<rect x="122" y="18" width="103" height="5" fill="#003200"/>
<rect x="123" y="34.9218" width="32.5744" height="3" transform="rotate(-75 123 34.9218)" fill="#003200"/>
<rect x="134.329" y="34.9218" width="32.5744" height="3" transform="rotate(-75 134.329 34.9218)" fill="#003200"/>
<rect x="145.657" y="34.9218" width="32.5744" height="3" transform="rotate(-75 145.657 34.9218)" fill="#003200"/>
<rect x="156.986" y="34.9218" width="32.5744" height="3" transform="rotate(-75 156.986 34.9218)" fill="#003200"/>
<rect x="168.315" y="34.9218" width="32.5744" height="3" transform="rotate(-75 168.315 34.9218)" fill="#003200"/>
<rect x="179.643" y="34.9218" width="32.5744" height="3" transform="rotate(-75 179.643 34.9218)" fill="#003200"/>
<rect x="190.972" y="34.9218" width="32.5744" height="3" transform="rotate(-75 190.972 34.9218)" fill="#003200"/>
<rect x="202.301" y="34.9218" width="32.5744" height="3" transform="rotate(-75 202.301 34.9218)" fill="#003200"/>
<rect x="213.629" y="34.9218" width="32.5744" height="3" transform="rotate(-75 213.629 34.9218)" fill="#003200"/>
<rect x="225" y="3" width="103" height="5" fill="#003200"/>
<rect x="225" y="18" width="101" height="5" fill="#003200"/>
<rect x="226" y="34.9218" width="32.5744" height="3" transform="rotate(-75 226 34.9218)" fill="#003200"/>
<rect x="237.329" y="34.9218" width="32.5744" height="3" transform="rotate(-75 237.329 34.9218)" fill="#003200"/>
<rect x="248.657" y="34.9218" width="32.5744" height="3" transform="rotate(-75 248.657 34.9218)" fill="#003200"/>
<rect x="259.986" y="34.9218" width="32.5744" height="3" transform="rotate(-75 259.986 34.9218)" fill="#003200"/>
<rect x="271.315" y="34.9218" width="32.5744" height="3" transform="rotate(-75 271.315 34.9218)" fill="#003200"/>
<rect x="282.643" y="34.9218" width="32.5744" height="3" transform="rotate(-75 282.643 34.9218)" fill="#003200"/>
<rect x="293.972" y="34.9218" width="32.5744" height="3" transform="rotate(-75 293.972 34.9218)" fill="#003200"/>
<rect x="305.301" y="34.9218" width="32.5744" height="3" transform="rotate(-75 305.301 34.9218)" fill="#003200"/>
<rect x="316.629" y="34.9218" width="32.5744" height="3" transform="rotate(-75 316.629 34.9218)" fill="#003200"/>
</g>
</g>
</svg>
