<svg width="873" height="80" viewBox="0 0 873 80" fill="none" xmlns="http://www.w3.org/2000/svg">
<path d="M615.95 80.0002C620.554 80.0002 624.286 76.3513 624.286 71.8501C624.286 67.349 620.554 63.7 615.95 63.7C611.346 63.7 607.613 67.349 607.613 71.8501C607.613 76.3513 611.346 80.0002 615.95 80.0002Z" fill="#033400"/>
<path d="M637.112 80.0003C641.716 80.0003 645.449 76.3513 645.449 71.8502C645.449 67.349 641.716 63.7001 637.112 63.7001C632.508 63.7001 628.776 67.349 628.776 71.8502C628.776 76.3513 632.508 80.0003 637.112 80.0003Z" fill="#033400"/>
<path d="M658.276 80.0003C662.88 80.0003 666.612 76.3513 666.612 71.8502C666.612 67.349 662.88 63.7001 658.276 63.7001C653.672 63.7001 649.939 67.349 649.939 71.8502C649.939 76.3513 653.672 80.0003 658.276 80.0003Z" fill="#033400"/>
<path d="M385.585 80.0002C390.189 80.0002 393.921 76.3512 393.921 71.8501C393.921 67.3489 390.189 63.7 385.585 63.7C380.981 63.7 377.248 67.3489 377.248 71.8501C377.248 76.3512 380.981 80.0002 385.585 80.0002Z" fill="#011500"/>
<path d="M406.747 80.0002C411.351 80.0002 415.083 76.3513 415.083 71.8501C415.083 67.349 411.351 63.7 406.747 63.7C402.143 63.7 398.41 67.349 398.41 71.8501C398.41 76.3513 402.143 80.0002 406.747 80.0002Z" fill="#011500"/>
<path d="M427.908 80.0002C432.513 80.0002 436.245 76.3513 436.245 71.8501C436.245 67.349 432.513 63.7 427.908 63.7C423.304 63.7 419.572 67.349 419.572 71.8501C419.572 76.3513 423.304 80.0002 427.908 80.0002Z" fill="#011500"/>
<path d="M504 5.42812H539.428H694.092V60.8821H683.982H539.428H504H359.446H349.338V5.42812H504Z" fill="white"/>
<path d="M356.288 71.8488L687.572 71.8488V60.8813L356.288 60.8813V71.8488Z" fill="white"/>
<path d="M525.184 28.6569L542.764 28.6569V17.4886H525.184V28.6569Z" fill="#32FF14"/>
<path d="M549.704 28.6569L567.284 28.6569V17.4886H549.704V28.6569Z" fill="#32FF14"/>
<path d="M574.223 28.6569L591.803 28.6569V17.4886H574.223V28.6569Z" fill="#32FF14"/>
<path d="M598.743 28.6569L616.323 28.6569V17.4886H598.743V28.6569Z" fill="#32FF14"/>
<path d="M623.263 28.657L640.843 28.657V17.4886H623.263V28.657Z" fill="#32FF14"/>
<path d="M500.665 28.6569L518.245 28.6569V17.4886H500.665V28.6569Z" fill="#32FF14"/>
<path d="M476.144 28.6569L493.724 28.6569V17.4886H476.144V28.6569Z" fill="#32FF14"/>
<path d="M451.625 28.6569L469.205 28.6569V17.4886H451.625V28.6569Z" fill="#32FF14"/>
<path d="M427.104 28.6569L444.684 28.6569V17.4886H427.104V28.6569Z" fill="#32FF14"/>
<path d="M402.587 28.6569L420.167 28.6569V17.4886H402.587V28.6569Z" fill="#32FF14"/>
<path d="M525.182 28.6575H542.764L525.182 17.4891V28.6575Z" fill="#28EB00"/>
<path d="M549.702 28.6574H567.284L549.702 17.4891V28.6574Z" fill="#28EB00"/>
<path d="M574.224 28.6575H591.804L574.224 17.4891V28.6575Z" fill="#28EB00"/>
<path d="M598.743 28.6575H616.323L598.743 17.4891V28.6575Z" fill="#28EB00"/>
<path d="M623.262 28.6575H640.842L623.262 17.4891V28.6575Z" fill="#28EB00"/>
<path d="M500.663 28.6575H518.243L500.663 17.4891V28.6575Z" fill="#28EB00"/>
<path d="M476.145 28.6575H493.725L476.145 17.4891V28.6575Z" fill="#28EB00"/>
<path d="M451.625 28.6575H469.205L451.625 17.4891V28.6575Z" fill="#28EB00"/>
<path d="M427.106 28.6575H444.686L427.106 17.4891V28.6575Z" fill="#28EB00"/>
<path d="M402.584 28.6574H420.166L402.584 17.4891V28.6574Z" fill="#28EB00"/>
<path d="M349.34 60.8828L694.091 60.8828V42.2324L349.34 42.2324V60.8828Z" fill="#033400"/>
<path d="M656.657 56.4857H678.299V13.1545H656.657V56.4857Z" fill="#033400"/>
<path d="M674.7 17.489H660.258V49.0196H674.7V17.489Z" fill="#2DEC11"/>
<path d="M365.129 56.4858H386.771V13.1546H365.129V56.4858Z" fill="#C7FFC5"/>
<path d="M368.728 49.0194H383.17V17.4888H368.728V49.0194Z" fill="#011500"/>
<path d="M361.84 0H681.588C684.655 0 687.14 2.42971 687.14 5.42808H356.287C356.287 2.42971 358.775 0 361.84 0Z" fill="#033400"/>
<path d="M266.611 80.0002C271.215 80.0002 274.947 76.3513 274.947 71.8501C274.947 67.349 271.215 63.7001 266.611 63.7001C262.006 63.7001 258.274 67.349 258.274 71.8501C258.274 76.3513 262.006 80.0002 266.611 80.0002Z" fill="#011500"/>
<path d="M287.774 80.0003C292.378 80.0003 296.111 76.3514 296.111 71.8502C296.111 67.349 292.378 63.7001 287.774 63.7001C283.17 63.7001 279.438 67.349 279.438 71.8502C279.438 76.3514 283.17 80.0003 287.774 80.0003Z" fill="#011500"/>
<path d="M308.936 80.0003C313.541 80.0003 317.273 76.3514 317.273 71.8502C317.273 67.349 313.541 63.7001 308.936 63.7001C304.332 63.7001 300.6 67.349 300.6 71.8502C300.6 76.3514 304.332 80.0003 308.936 80.0003Z" fill="#011500"/>
<path d="M36.2462 80.0002C40.8503 80.0002 44.5826 76.3513 44.5826 71.8501C44.5826 67.3489 40.8503 63.7 36.2462 63.7C31.642 63.7 27.9097 67.3489 27.9097 71.8501C27.9097 76.3513 31.642 80.0002 36.2462 80.0002Z" fill="#011500"/>
<path d="M57.4069 80.0002C62.011 80.0002 65.7434 76.3513 65.7434 71.8501C65.7434 67.349 62.011 63.7001 57.4069 63.7001C52.8028 63.7001 49.0704 67.349 49.0704 71.8501C49.0704 76.3513 52.8028 80.0002 57.4069 80.0002Z" fill="#011500"/>
<path d="M78.5692 80.0002C83.1733 80.0002 86.9056 76.3513 86.9056 71.8501C86.9056 67.349 83.1733 63.7001 78.5692 63.7001C73.965 63.7001 70.2327 67.349 70.2327 71.8501C70.2327 76.3513 73.965 80.0002 78.5692 80.0002Z" fill="#011500"/>
<path d="M154.661 5.42812H190.09H344.751V60.8821H334.643H190.09H154.661H10.1079H0V5.42812H154.661Z" fill="#033400"/>
<path d="M6.95013 71.8488L338.234 71.8488V60.8813L6.95013 60.8813V71.8488Z" fill="#033400"/>
<path d="M175.845 28.6569L193.425 28.6569V17.4886H175.845V28.6569Z" fill="#32FF14"/>
<path d="M200.366 28.6569L217.946 28.6569V17.4886H200.366V28.6569Z" fill="#32FF14"/>
<path d="M224.886 28.6569L242.466 28.6569V17.4886H224.886V28.6569Z" fill="#32FF14"/>
<path d="M249.406 28.657L266.986 28.657V17.4886H249.406V28.657Z" fill="#32FF14"/>
<path d="M273.926 28.6569L291.506 28.6569V17.4886H273.926V28.6569Z" fill="#32FF14"/>
<path d="M151.326 28.6569L168.906 28.6569V17.4886H151.326V28.6569Z" fill="#32FF14"/>
<path d="M126.807 28.6569L144.387 28.6569V17.4886H126.807V28.6569Z" fill="#32FF14"/>
<path d="M102.287 28.6569L119.867 28.6569V17.4886H102.287V28.6569Z" fill="#32FF14"/>
<path d="M77.7655 28.6569L95.3456 28.6569V17.4886H77.7655V28.6569Z" fill="#32FF14"/>
<path d="M53.2478 28.6569L70.8278 28.6569V17.4886H53.2478V28.6569Z" fill="#32FF14"/>
<path d="M175.846 28.6575H193.426L175.846 17.4891V28.6575Z" fill="#28EB00"/>
<path d="M200.364 28.6575H217.944L200.364 17.4891V28.6575Z" fill="#28EB00"/>
<path d="M224.883 28.6575H242.463L224.883 17.4891V28.6575Z" fill="#28EB00"/>
<path d="M249.404 28.6575H266.986L249.404 17.4891V28.6575Z" fill="#28EB00"/>
<path d="M273.922 28.6575H291.504L273.922 17.4891V28.6575Z" fill="#28EB00"/>
<path d="M151.327 28.6575H168.907L151.327 17.4891V28.6575Z" fill="#28EB00"/>
<path d="M126.805 28.6575H144.387L126.805 17.4891V28.6575Z" fill="#28EB00"/>
<path d="M102.285 28.6575H119.865L102.285 17.4891V28.6575Z" fill="#28EB00"/>
<path d="M77.7665 28.6575H95.3466L77.7665 17.4891V28.6575Z" fill="#28EB00"/>
<path d="M53.2465 28.6574H70.8265L53.2465 17.4891V28.6574Z" fill="#28EB00"/>
<path d="M6.10352e-05 60.8828L344.751 60.8828V42.2324L6.10352e-05 42.2324V60.8828Z" fill="#C7FFC5"/>
<path d="M307.319 56.4858H328.961V13.1546H307.319V56.4858Z" fill="#C7FFC5"/>
<path d="M325.36 17.489H310.918V49.0196H325.36V17.489Z" fill="#011500"/>
<path d="M15.7905 56.4858H37.432L37.432 13.1546H15.7905L15.7905 56.4858Z" fill="#C7FFC5"/>
<path d="M19.3877 49.0194H33.8296L33.8296 17.4888H19.3877L19.3877 49.0194Z" fill="#011500"/>
<path d="M12.5034 0H332.251C335.318 0 337.804 2.42971 337.804 5.42808H6.95117C6.95117 2.42971 9.43647 0 12.5034 0Z" fill="#C7FFC5"/>
<path d="M731.981 80.0002C736.585 80.0002 740.317 76.3513 740.317 71.8501C740.317 67.3489 736.585 63.7 731.981 63.7C727.377 63.7 723.644 67.3489 723.644 71.8501C723.644 76.3513 727.377 80.0002 731.981 80.0002Z" fill="#033400"/>
<path d="M753.141 80.0002C757.746 80.0002 761.478 76.3513 761.478 71.8501C761.478 67.349 757.746 63.7001 753.141 63.7001C748.537 63.7001 744.805 67.349 744.805 71.8501C744.805 76.3513 748.537 80.0002 753.141 80.0002Z" fill="#033400"/>
<path d="M774.307 80.0002C778.911 80.0002 782.643 76.3513 782.643 71.8501C782.643 67.349 778.911 63.7001 774.307 63.7001C769.703 63.7001 765.97 67.349 765.97 71.8501C765.97 76.3513 769.703 80.0002 774.307 80.0002Z" fill="#033400"/>
<path d="M865.639 71.2416H699.861V3.86572C699.861 3.86572 823.851 8.27381 870.561 60.5863C874.272 64.7438 871.285 71.2416 865.639 71.2416Z" fill="white"/>
<path d="M854.577 46.404C848.738 47.1357 842.665 47.5373 836.417 47.5373C796.183 47.5373 762.851 31.4857 756.945 10.5289C788.861 16.291 827.528 26.9285 854.577 46.404Z" fill="#32FF14"/>
<path d="M854.578 46.4038C848.739 47.1355 842.666 47.5371 836.418 47.5371C832.208 47.5371 828.082 47.3522 824.047 47.0122C801.783 40.924 785.454 29.3858 780.988 15.6188C806.857 21.9495 834.059 31.6286 854.578 46.4038Z" fill="#28EB00"/>
<path d="M699.861 42.232H752.668C760.136 50.1574 771.926 56.6811 786.358 60.8824H699.861V42.232Z" fill="#033400"/>
<path d="M742.244 27.7532H745.851L747.798 25.9074H740.422L739.15 24.6574L750.259 24.7427L741.683 16L740.241 17.4698L742.194 19.4695H738.211L736.351 21.2977H743.998L745.368 22.6201L734.259 22.5467L742.559 31L744.005 29.5331L742.244 27.7532Z" fill="#3CD732"/>
</svg>
