<svg width="819" height="184" viewBox="0 0 819 184" fill="none" xmlns="http://www.w3.org/2000/svg">
<g filter="url(#filter0_d_12_2)">
<g clip-path="url(#clip0_12_2)">
<rect x="7" y="5" width="805" height="170" rx="16" fill="url(#paint0_linear_12_2)"/>
<path opacity="0.05" d="M135.787 146.709H184.932L211.469 122.099H110.96L93.6336 105.432L245 106.57L128.154 -10L108.501 9.59765L135.116 36.2602H80.8389L55.501 60.6358H159.686L178.359 78.2683L27 77.2893L140.089 190L159.785 170.442L135.787 146.709Z" fill="white"/>
<mask id="mask0_12_2" style="mask-type:alpha" maskUnits="userSpaceOnUse" x="314" y="5" width="108" height="50">
<rect x="422" y="55" width="108" height="50" transform="rotate(180 422 55)" fill="#D9D9D9"/>
</mask>
<g mask="url(#mask0_12_2)">
<path opacity="0.05" d="M377.607 -18.3546H353.034L339.766 -6.0496H390.02L398.683 2.28403L323 1.71521L381.423 60L391.25 50.2012L377.942 36.8699H405.081L417.75 24.6821H365.657L356.32 15.8658L432 16.3553L375.456 -40L365.607 -30.2208L377.607 -18.3546Z" fill="white"/>
</g>
</g>
</g>
<defs>
<filter id="filter0_d_12_2" x="0" y="0" width="819" height="184" filterUnits="userSpaceOnUse" color-interpolation-filters="sRGB">
<feFlood flood-opacity="0" result="BackgroundImageFix"/>
<feColorMatrix in="SourceAlpha" type="matrix" values="0 0 0 0 0 0 0 0 0 0 0 0 0 0 0 0 0 0 127 0" result="hardAlpha"/>
<feMorphology radius="2" operator="dilate" in="SourceAlpha" result="effect1_dropShadow_12_2"/>
<feOffset dy="2"/>
<feGaussianBlur stdDeviation="2.5"/>
<feComposite in2="hardAlpha" operator="out"/>
<feColorMatrix type="matrix" values="0 0 0 0 0 0 0 0 0 0 0 0 0 0 0 0 0 0 0.095 0"/>
<feBlend mode="normal" in2="BackgroundImageFix" result="effect1_dropShadow_12_2"/>
<feBlend mode="normal" in="SourceGraphic" in2="effect1_dropShadow_12_2" result="shape"/>
</filter>
<linearGradient id="paint0_linear_12_2" x1="7" y1="90" x2="812" y2="90" gradientUnits="userSpaceOnUse">
<stop stop-color="#159400"/>
<stop offset="1" stop-color="#075300"/>
</linearGradient>
<clipPath id="clip0_12_2">
<rect x="7" y="5" width="805" height="170" rx="16" fill="white"/>
</clipPath>
</defs>
</svg>
