<svg width="88" height="36" viewBox="0 0 88 36" fill="none" xmlns="http://www.w3.org/2000/svg">
<path d="M87.0316 10.9522C87.8103 12.5216 88.106 14.2866 87.8814 16.0241C87.6567 17.7615 86.9219 19.3933 85.7697 20.713C84.6175 22.0327 83.0998 22.9811 81.4085 23.4381C79.7173 23.8951 77.9285 23.8402 76.2684 23.2804C74.6084 22.7206 73.1516 21.681 72.0825 20.2931C71.0134 18.9053 70.3799 17.2315 70.2622 15.4836C70.1445 13.7356 70.5479 11.992 71.4213 10.4734C72.2947 8.9547 73.5989 7.7292 75.1689 6.95189C76.2104 6.43531 77.3435 6.129 78.5035 6.05048C79.6634 5.97196 80.8274 6.12276 81.9291 6.49425C83.0307 6.86575 84.0483 7.45067 84.9239 8.21559C85.7994 8.98051 86.5156 9.91043 87.0316 10.9522Z" fill="#FFB347"/>
<path d="M86.1197 11.405C86.8069 12.7941 87.0667 14.3559 86.8665 15.8927C86.6662 17.4295 86.0148 18.8725 84.9945 20.0391C83.9742 21.2058 82.631 22.0438 81.1346 22.4471C79.6381 22.8504 78.0557 22.801 76.5873 22.3051C75.119 21.8092 73.8306 20.8891 72.8851 19.6611C71.9396 18.433 71.3795 16.9523 71.2755 15.4059C71.1715 13.8596 71.5283 12.3171 72.3008 10.9735C73.0733 9.62994 74.2268 8.54557 75.6156 7.8575C77.4791 6.93605 79.6322 6.79209 81.6018 7.45728C83.5714 8.12246 85.1964 9.54236 86.1197 11.405Z" fill="#F9DEBB"/>
<path d="M85.3177 11.8015C85.9197 13.0284 86.145 14.4061 85.9649 15.7609C85.7849 17.1156 85.2077 18.3867 84.3062 19.4138C83.4046 20.4409 82.219 21.178 80.8991 21.5321C79.5791 21.8862 78.1838 21.8414 76.8892 21.4035C75.5946 20.9655 74.4587 20.154 73.6248 19.0713C72.7909 17.9885 72.2963 16.683 72.2035 15.3195C72.1106 13.956 72.4237 12.5956 73.1031 11.4098C73.7826 10.224 74.798 9.26597 76.0212 8.65657C76.8376 8.24987 77.7264 8.00861 78.6363 7.94665C79.5463 7.88469 80.4595 8.00326 81.3235 8.29554C82.1875 8.58782 82.9852 9.04804 83.6707 9.64973C84.3561 10.2514 84.9159 10.9827 85.3177 11.8015Z" fill="#FFB347"/>
<path d="M77.1576 18.242L76.5915 19.3868L76.7802 19.4811L77.34 18.3552L77.579 18.4873C77.699 18.5481 77.823 18.6006 77.9501 18.6446L77.3903 19.783L77.579 19.8711L78.1514 18.7137C78.4444 18.7919 78.7493 18.8154 79.0508 18.7829C79.1783 18.7469 79.3133 18.7469 79.4408 18.7829C79.5603 18.8458 79.5352 19.0157 79.4408 19.305L79.6547 19.4119C79.8245 19.0094 80.0824 18.4621 80.7428 17.1224L80.529 17.0155C79.9755 17.9652 79.2207 18.676 78.252 18.4936L79.7993 15.443C80.8435 15.3424 81.7492 15.1474 82.2272 14.185C82.4461 13.7906 82.5029 13.3264 82.3855 12.8908C82.2681 12.4553 81.9857 12.0825 81.5982 11.8515L82.1706 10.6879L81.9819 10.5935L81.4158 11.7383L81.2775 11.6628C81.1225 11.5845 80.9603 11.5213 80.7931 11.4741L81.3781 10.2916L81.1894 10.1973L80.5604 11.4552C80.3519 11.4239 80.1399 11.4239 79.9314 11.4552C79.8067 11.4952 79.6725 11.4952 79.5478 11.4552C79.422 11.3923 79.4471 11.2288 79.5478 10.9395L79.3213 10.8263C79.1892 11.1722 79.0068 11.5936 78.4156 12.7824L78.6357 12.8893C78.7991 12.5368 79.0562 12.2359 79.379 12.0196C79.7018 11.8032 80.0779 11.6798 80.4661 11.6628L79.076 14.4744C77.8746 14.6002 76.9689 14.7763 76.4909 15.7323C76.2596 16.1565 76.1999 16.6532 76.3239 17.1201C76.4479 17.587 76.7463 17.9885 77.1576 18.242ZM80.3403 14.292L81.4473 12.0591C81.6346 12.235 81.7585 12.4681 81.7994 12.7218C81.8404 12.9756 81.7962 13.2357 81.6737 13.4617C81.5461 13.7073 81.3552 13.9143 81.1208 14.0614C80.8864 14.2084 80.6169 14.2902 80.3403 14.2983V14.292ZM81.2837 11.9207L80.0887 14.3297L79.2962 14.4052L80.6611 11.6502C80.801 11.6773 80.9365 11.7239 81.0636 11.7886C81.1427 11.8349 81.2165 11.8898 81.2837 11.9521V11.9207ZM77.4469 18.1414L78.7364 15.5437C78.9628 15.5059 79.2081 15.4808 79.4723 15.4619H79.5289L78.0445 18.4621C77.939 18.4273 77.836 18.3852 77.7363 18.3363C77.633 18.2846 77.5359 18.2213 77.4469 18.1477V18.1414ZM77.2834 17.9967C77.0971 17.7908 76.9819 17.5305 76.9547 17.2542C76.9276 16.9779 76.9899 16.7002 77.1324 16.462C77.2661 16.215 77.4591 16.0052 77.6941 15.8515C77.9291 15.6978 78.1987 15.6049 78.4785 15.5814L77.2834 17.9967Z" fill="#F9DEBB"/>
<g style="mix-blend-mode:overlay" opacity="0.23">
<path d="M77.0879 6.29152C78.3831 6.60388 79.6122 7.1449 80.7172 7.88914C84.4911 10.5875 85.6485 16.9403 81.7865 20.4186C80.1736 21.8803 78.177 22.8513 76.0312 23.2175C77.3266 23.6978 78.7164 23.8683 80.0894 23.7155C81.4625 23.5627 82.7807 23.0908 83.9388 22.3375C85.0969 21.5842 86.0627 20.5704 86.759 19.3772C87.4553 18.184 87.8627 16.8444 87.9488 15.4656C88.0349 14.0867 87.7972 12.7069 87.2547 11.4363C86.7123 10.1657 85.8801 9.0397 84.8247 8.14822C83.7693 7.25673 82.5199 6.62452 81.1766 6.30213C79.8332 5.97974 78.433 5.9761 77.0879 6.29152Z" fill="black"/>
</g>
<path d="M55.6349 14.9145C55.4435 15.9027 54.9634 16.8119 54.2552 17.5271C53.547 18.2424 52.6426 18.7315 51.6564 18.9327C50.6702 19.1339 49.6465 19.0381 48.7148 18.6574C47.783 18.2768 46.9851 17.6283 46.4219 16.7941C45.8587 15.9599 45.5556 14.9774 45.5508 13.9709C45.5461 12.9644 45.84 11.9791 46.3953 11.1396C46.9505 10.3001 47.7423 9.64416 48.6705 9.25472C49.5986 8.86528 50.6214 8.75984 51.6094 8.95174C52.9338 9.20895 54.1018 9.98157 54.8567 11.0997C55.6115 12.2179 55.8915 13.59 55.6349 14.9145Z" fill="#FFB347"/>
<path d="M55.0813 14.8015C54.9121 15.676 54.4874 16.4807 53.8608 17.1138C53.2343 17.7469 52.4341 18.18 51.5615 18.3583C50.6888 18.5366 49.7829 18.4522 48.9582 18.1156C48.1335 17.7791 47.4271 17.2056 46.9284 16.4676C46.4297 15.7296 46.161 14.8603 46.1563 13.9696C46.1516 13.079 46.4112 12.2069 46.9021 11.4637C47.393 10.7205 48.0933 10.1396 48.9144 9.79437C49.7355 9.44917 50.6405 9.35519 51.515 9.52432C52.0957 9.63663 52.6485 9.86222 53.142 10.1882C53.6355 10.5142 54.06 10.9342 54.3912 11.4243C54.7223 11.9143 54.9537 12.4648 55.0721 13.0442C55.1906 13.6237 55.1937 14.2208 55.0813 14.8015Z" fill="#F9DEBB"/>
<path d="M54.5703 14.7073C54.4198 15.482 54.0429 16.1945 53.4872 16.7548C52.9316 17.3151 52.2222 17.6979 51.4488 17.8549C50.6755 18.0118 49.873 17.9358 49.1429 17.6364C48.4128 17.3371 47.7879 16.8278 47.3473 16.1731C46.9068 15.5185 46.6704 14.7478 46.668 13.9587C46.6656 13.1696 46.8974 12.3976 47.334 11.7403C47.7707 11.083 48.3925 10.57 49.1208 10.2662C49.8491 9.9625 50.6511 9.88167 51.4254 10.034C52.4616 10.2378 53.3746 10.8443 53.9642 11.7204C54.5537 12.5965 54.7717 13.6707 54.5703 14.7073Z" fill="#FFB347"/>
<path d="M50.6894 16.3551L50.8278 17.0721H50.9473L50.8152 16.3614H50.9662L51.1926 16.3047L51.3184 16.9841H51.4379L51.2933 16.2544C51.4542 16.1907 51.6016 16.0967 51.7273 15.9777C51.7744 15.9187 51.8378 15.875 51.9097 15.8519C51.9914 15.8519 52.0355 15.9211 52.0921 16.0909L52.2305 16.0594C52.1676 15.8204 52.0921 15.4808 51.9285 14.6379L51.7965 14.6694C51.8719 15.2984 51.7965 15.877 51.2681 16.1286L50.897 14.1976C51.1289 14.0472 51.3141 13.835 51.4319 13.585C51.5497 13.335 51.5954 13.057 51.5637 12.7824C51.5247 12.5257 51.3874 12.2942 51.1808 12.1369C50.9742 11.9796 50.7146 11.9089 50.4567 11.9396L50.3183 11.21H50.1988L50.3372 11.927H50.2491C50.1495 11.9412 50.0522 11.9687 49.9598 12.0088L49.8151 11.2603H49.7019L49.8466 12.0339C49.7411 12.0943 49.6456 12.1707 49.5635 12.2604C49.4818 12.3358 49.4315 12.3736 49.3812 12.3799C49.3308 12.3862 49.2554 12.3107 49.1987 12.1471H49.0604C49.1233 12.3547 49.1799 12.6063 49.3308 13.3548H49.4629C49.4141 13.1373 49.4265 12.9105 49.4987 12.6996C49.5708 12.4886 49.7 12.3018 49.8718 12.1597L50.2177 13.9209C49.7082 14.3926 49.3623 14.7889 49.4755 15.399C49.5102 15.6866 49.6574 15.9487 49.8849 16.1279C50.1125 16.3071 50.4018 16.3888 50.6894 16.3551ZM50.7838 16.2104L50.4693 14.5813C50.5636 14.4807 50.6643 14.3863 50.7775 14.2857L51.1423 16.1727L50.9599 16.2167C50.9002 16.218 50.8407 16.2095 50.7838 16.1915V16.2104ZM50.7838 13.4492L50.5133 12.0528C50.6599 12.0677 50.7974 12.1307 50.9043 12.232C51.0113 12.3332 51.0817 12.4671 51.1046 12.6126C51.1234 12.766 51.1026 12.9217 51.0443 13.0648C50.9859 13.2079 50.8919 13.3338 50.7712 13.4303L50.7838 13.4492ZM50.3875 12.0465L50.6769 13.5561C50.5762 13.6567 50.463 13.7573 50.3435 13.8643L50.0101 12.1346C50.0847 12.101 50.1628 12.0757 50.2429 12.0591L50.3875 12.0465ZM50.6706 16.1978C50.5168 16.1707 50.3757 16.095 50.2682 15.9818C50.1606 15.8686 50.0922 15.7238 50.073 15.5688C50.0488 15.4109 50.0643 15.2494 50.1182 15.099C50.172 14.9486 50.2624 14.8139 50.3812 14.7071L50.6706 16.1978Z" fill="#F9DEBB"/>
<g style="mix-blend-mode:overlay" opacity="0.23">
<path d="M52.7475 9.30371C53.2295 9.89798 53.6022 10.5731 53.8482 11.2976C54.6407 13.8513 52.9488 17.1535 49.9737 17.3988C48.726 17.5045 47.474 17.2536 46.3633 16.6754C46.789 17.344 47.3651 17.9039 48.0455 18.3105C48.726 18.717 49.492 18.959 50.2825 19.0171C51.073 19.0752 51.8662 18.9478 52.5988 18.6451C53.3313 18.3424 53.983 17.8727 54.502 17.2735C55.0209 16.6743 55.3926 15.9622 55.5876 15.1939C55.7826 14.4256 55.7954 13.6224 55.6249 12.8483C55.4545 12.0742 55.1056 11.3506 54.6061 10.7352C54.1065 10.1198 53.4701 9.6296 52.7475 9.30371Z" fill="black"/>
</g>
<path d="M64.3333 29.8155C64.6265 30.5199 64.7041 31.2955 64.5563 32.044C64.4085 32.7926 64.0419 33.4805 63.5029 34.0206C62.9639 34.5607 62.2769 34.9287 61.5286 35.0781C60.7804 35.2275 60.0046 35.1516 59.2996 34.8599C58.5945 34.5681 57.9919 34.0738 57.5679 33.4394C57.144 32.805 56.9178 32.0591 56.918 31.2961C56.9182 30.5331 57.1447 29.7873 57.569 29.1531C57.9933 28.5189 58.5962 28.0249 59.3014 27.7335C59.7685 27.5397 60.2692 27.4397 60.7749 27.4395C61.2806 27.4392 61.7815 27.5385 62.2488 27.7319C62.7161 27.9252 63.1407 28.2088 63.4983 28.5663C63.856 28.9238 64.1397 29.3483 64.3333 29.8155Z" fill="#FFB347"/>
<path d="M63.9239 29.9855C64.1837 30.6094 64.2525 31.2963 64.1217 31.9593C63.9909 32.6223 63.6663 33.2316 63.1891 33.7101C62.7119 34.1885 62.1034 34.5147 61.4407 34.6472C60.7781 34.7798 60.091 34.7128 59.4664 34.4547C58.8419 34.1966 58.3079 33.759 57.9321 33.1973C57.5564 32.6356 57.3557 31.9751 57.3555 31.2993C57.3553 30.6235 57.5555 29.9628 57.9309 29.4009C58.3063 28.839 58.84 28.401 59.4644 28.1425C59.8782 27.9703 60.3219 27.8814 60.77 27.8809C61.2182 27.8803 61.6621 27.9681 62.0763 28.1393C62.4905 28.3105 62.8669 28.5616 63.1839 28.8784C63.501 29.1952 63.7524 29.5714 63.9239 29.9855Z" fill="#F9DEBB"/>
<path d="M63.5655 30.1355C63.7951 30.6883 63.8556 31.2968 63.7393 31.8839C63.623 32.4711 63.3351 33.0106 62.9121 33.4341C62.489 33.8576 61.9499 34.146 61.3629 34.263C60.7758 34.38 60.1673 34.3203 59.6142 34.0913C59.0612 33.8623 58.5885 33.4744 58.2559 32.9767C57.9234 32.479 57.746 31.8939 57.7461 31.2953C57.7462 30.6967 57.9239 30.1116 58.2567 29.6141C58.5895 29.1165 59.0623 28.7288 59.6155 28.5001C60.3564 28.1956 61.1877 28.1966 61.9278 28.503C62.668 28.8095 63.2567 29.3964 63.5655 30.1355Z" fill="#FFB347"/>
<path d="M60.06 32.828L59.8461 33.3375L59.9342 33.3753L60.1418 32.8721L60.2487 32.9224L60.4122 32.979L60.2047 33.4885L60.2864 33.5199L60.5066 33.0042C60.6353 33.0296 60.7678 33.0296 60.8966 33.0042C60.9524 32.991 61.0105 32.991 61.0664 33.0042C61.123 33.0042 61.1167 33.0985 61.0664 33.2306L61.167 33.2683C61.2236 33.0922 61.3243 32.8469 61.5696 32.2431L61.4752 32.2054C61.2614 32.6331 60.9531 32.9664 60.5317 32.9098L61.1041 31.5323C61.5507 31.4569 61.9344 31.3499 62.1168 30.9033C62.1998 30.7253 62.2101 30.5218 62.1455 30.3362C62.0809 30.1507 61.9465 29.9976 61.7708 29.9095L61.9847 29.3875L61.9029 29.3498L61.6891 29.8655L61.6262 29.8341C61.5568 29.807 61.4853 29.7859 61.4123 29.7712L61.6325 29.2428L61.5444 29.2051L61.318 29.7586C61.2262 29.7452 61.133 29.7452 61.0412 29.7586C60.9885 29.7784 60.9304 29.7784 60.8777 29.7586C60.8211 29.7586 60.8211 29.6642 60.8777 29.5384L60.777 29.4944C60.6818 29.7917 60.5705 30.0835 60.4437 30.3687L60.538 30.4127C60.5986 30.2545 60.7017 30.1161 60.836 30.0129C60.9704 29.9097 61.1306 29.8456 61.2991 29.8278L60.777 31.0858C60.2613 31.1738 59.8713 31.2745 59.6889 31.7147C59.5939 31.9122 59.5796 32.1388 59.6489 32.3466C59.7181 32.5544 59.8656 32.7271 60.06 32.828ZM61.318 31.0229L61.7331 30.0228C61.8197 30.0925 61.8804 30.1893 61.9055 30.2976C61.9306 30.406 61.9186 30.5196 61.8715 30.6203C61.8242 30.7299 61.7485 30.825 61.6524 30.8957C61.5562 30.9664 61.443 31.0103 61.3243 31.0229H61.318ZM61.6576 29.9662L61.211 31.0417L60.8714 31.0983L61.3809 29.8404C61.4436 29.8491 61.5049 29.866 61.5633 29.8907L61.6576 29.9662ZM60.1732 32.7777L60.6575 31.6078L60.972 31.5575H61.0035L60.4437 32.8972L60.3053 32.8532L60.1732 32.7777ZM60.0977 32.7148C60.012 32.6304 59.9555 32.5208 59.9363 32.4021C59.917 32.2833 59.9361 32.1615 59.9908 32.0544C60.0427 31.9438 60.1208 31.8476 60.2183 31.7741C60.3159 31.7007 60.43 31.6522 60.5506 31.633L60.0977 32.7148Z" fill="#F9DEBB"/>
<g style="mix-blend-mode:overlay" opacity="0.23">
<path d="M60.149 27.4885C60.703 27.659 61.2211 27.9298 61.6774 28.2873C63.2499 29.5453 63.5644 32.3632 61.7781 33.7595C61.0361 34.3493 60.1417 34.7158 59.1992 34.8162C59.7479 35.0606 60.3461 35.1735 60.9461 35.1457C61.5461 35.118 62.1314 34.9505 62.6552 34.6565C63.179 34.3626 63.6268 33.9503 63.9631 33.4525C64.2993 32.9548 64.5146 32.3854 64.5919 31.7898C64.6691 31.1941 64.606 30.5886 64.4078 30.0216C64.2095 29.4546 63.8816 28.9418 63.45 28.524C63.0185 28.1062 62.4953 27.795 61.9222 27.6152C61.349 27.4354 60.7418 27.3921 60.149 27.4885Z" fill="black"/>
</g>
<path d="M23.3979 19.5879C23.7087 20.3382 23.7902 21.1638 23.6319 21.9603C23.4737 22.7569 23.0829 23.4886 22.5089 24.0631C21.9349 24.6376 21.2034 25.029 20.407 25.1879C19.6106 25.3468 18.7849 25.2661 18.0344 24.9558C17.2839 24.6456 16.6422 24.1198 16.1904 23.445C15.7386 22.7702 15.497 21.9765 15.4961 21.1644C15.4952 20.3523 15.7351 19.5581 16.1855 18.8823C16.6359 18.2065 17.2765 17.6794 18.0263 17.3676C19.0332 16.9507 20.1643 16.9504 21.1714 17.3667C22.1785 17.7829 22.9792 18.5818 23.3979 19.5879Z" fill="#FFB347"/>
<path d="M22.9661 19.7715C23.2425 20.4369 23.3152 21.1694 23.1751 21.8761C23.0351 22.5829 22.6885 23.2323 22.1793 23.742C21.6701 24.2517 21.0211 24.599 20.3145 24.7398C19.6079 24.8806 18.8754 24.8087 18.2097 24.533C17.5439 24.2574 16.9749 23.7905 16.5746 23.1914C16.1744 22.5923 15.9608 21.888 15.9609 21.1675C15.9611 20.447 16.1749 19.7427 16.5755 19.1437C16.976 18.5448 17.5452 18.0782 18.211 17.8028C19.1027 17.434 20.1043 17.4342 20.9959 17.8034C21.8875 18.1725 22.5961 18.8803 22.9661 19.7715Z" fill="#F9DEBB"/>
<path d="M22.5744 19.928C22.8183 20.5164 22.8821 21.1639 22.7579 21.7887C22.6338 22.4134 22.3271 22.9872 21.8768 23.4377C21.4265 23.8881 20.8527 24.1949 20.228 24.3193C19.6034 24.4436 18.9558 24.3799 18.3673 24.1363C17.7788 23.8926 17.2758 23.4799 16.9219 22.9504C16.568 22.4208 16.379 21.7982 16.3789 21.1613C16.3788 20.5243 16.5676 19.9017 16.9214 19.372C17.2752 18.8424 17.7781 18.4296 18.3665 18.1857C18.7571 18.023 19.176 17.939 19.5991 17.9385C20.0223 17.938 20.4414 18.0211 20.8323 18.183C21.2233 18.3448 21.5784 18.5823 21.8774 18.8818C22.1763 19.1812 22.4132 19.5368 22.5744 19.928Z" fill="#FFB347"/>
<path d="M18.8028 22.7962L18.5764 23.3434L18.6644 23.3811L18.8846 22.8402L19.0041 22.8968L19.1802 22.9597L18.9538 23.5006L19.0481 23.5384L19.2746 22.9848C19.4139 23.0104 19.5567 23.0104 19.696 22.9848C19.7535 22.9681 19.8146 22.9681 19.8721 22.9848C19.935 22.9848 19.9287 23.0855 19.8721 23.2239L19.979 23.2679C20.0419 23.0792 20.1426 22.815 20.413 22.1735L20.3061 22.1294C20.0797 22.5886 19.7526 22.9408 19.2997 22.8842L19.9287 21.4124C20.4067 21.3306 20.8219 21.2174 21.0169 20.7834C21.1041 20.5919 21.1135 20.3739 21.0431 20.1756C20.9727 19.9773 20.8279 19.8141 20.6395 19.7204L20.8722 19.1606L20.7841 19.1229L20.5577 19.6764H20.4885C20.414 19.6426 20.3359 19.6173 20.2558 19.6009L20.4948 19.0348L20.4004 18.9971L20.1551 19.5883C20.0594 19.5716 19.9615 19.5716 19.8658 19.5883C19.8066 19.608 19.7426 19.608 19.6834 19.5883C19.6268 19.5883 19.6331 19.4877 19.6834 19.3493L19.5828 19.3053C19.5325 19.4688 19.457 19.6701 19.2179 20.2425L19.3249 20.2802C19.3882 20.1103 19.4977 19.9614 19.6411 19.8503C19.7844 19.7391 19.9559 19.6702 20.1363 19.6512L19.5765 20.9973C19.023 21.0916 18.6141 21.1985 18.4191 21.664C18.3304 21.8666 18.3206 22.095 18.3916 22.3044C18.4625 22.5139 18.6092 22.6893 18.8028 22.7962ZM20.1551 20.8652L20.5954 19.7959C20.6858 19.8698 20.7496 19.9714 20.7768 20.085C20.8041 20.1985 20.7934 20.3179 20.7464 20.4249C20.6953 20.5438 20.6137 20.6471 20.5099 20.7244C20.4061 20.8017 20.2837 20.8502 20.1551 20.8652ZM20.52 19.733L20.0356 20.8903L19.6708 20.9469L20.218 19.6261C20.2857 19.6342 20.3515 19.6534 20.413 19.6827L20.52 19.733ZM18.9286 22.7395L19.4444 21.4816L19.784 21.4187H19.8155L19.2179 22.8528C19.1679 22.8419 19.1193 22.825 19.0733 22.8024C19.0226 22.7876 18.974 22.7665 18.9286 22.7395ZM18.8531 22.6766C18.7628 22.5847 18.7029 22.4672 18.6815 22.3401C18.6601 22.213 18.6783 22.0823 18.7336 21.9659C18.7889 21.8481 18.8724 21.7458 18.9766 21.6679C19.0808 21.59 19.2026 21.539 19.3312 21.5193L18.8531 22.6766Z" fill="#F9DEBB"/>
<g style="mix-blend-mode:overlay" opacity="0.23">
<path d="M18.9385 17.1038C19.5282 17.2894 20.08 17.5791 20.5675 17.9593C22.2406 19.3242 22.574 22.3056 20.6745 23.7963C19.8823 24.4214 18.9293 24.8095 17.9258 24.9159C18.5113 25.1784 19.1501 25.3004 19.7912 25.2719C20.4322 25.2435 21.0577 25.0655 21.6177 24.7522C22.1777 24.4388 22.6566 23.9988 23.0161 23.4673C23.3757 22.9358 23.6059 22.3276 23.6884 21.6912C23.7709 21.0549 23.7034 20.408 23.4912 19.8024C23.2791 19.1968 22.9282 18.6492 22.4666 18.2035C22.0051 17.7577 21.4456 17.4261 20.833 17.2352C20.2204 17.0442 19.5716 16.9992 18.9385 17.1038Z" fill="black"/>
</g>
<path d="M10.9752 9.43608C10.2997 10.4159 9.34885 11.1735 8.24292 11.6131C7.137 12.0527 5.92556 12.1546 4.76173 11.906C3.59789 11.6573 2.53389 11.0692 1.70417 10.2161C0.874444 9.36289 0.316244 8.28292 0.100105 7.11261C-0.116033 5.9423 0.0195944 4.73419 0.489844 3.64093C0.960094 2.54768 1.74387 1.61835 2.74211 0.97039C3.74035 0.322432 4.90825 -0.015073 6.09825 0.000516694C7.28825 0.0161064 8.44694 0.384091 9.42786 1.05798C10.0808 1.50551 10.6389 2.07755 11.0702 2.74127C11.5015 3.40499 11.7975 4.14733 11.9413 4.92572C12.085 5.70411 12.0737 6.50323 11.9079 7.27722C11.7421 8.05122 11.4251 8.78487 10.9752 9.43608Z" fill="#FFB347"/>
<path d="M10.4008 9.05305C9.80308 9.92241 8.96093 10.595 7.98091 10.9857C7.00089 11.3764 5.92702 11.4677 4.89511 11.248C3.86321 11.0283 2.91963 10.5075 2.18372 9.75155C1.44781 8.99556 0.952607 8.03831 0.760781 7.00087C0.568955 5.96342 0.689115 4.89239 1.10604 3.92324C1.52297 2.95409 2.21794 2.13036 3.10307 1.55622C3.9882 0.982082 5.02372 0.683333 6.07865 0.697765C7.13358 0.712197 8.16054 1.03916 9.02964 1.6373C10.1946 2.43906 10.9935 3.67065 11.2506 5.06128C11.5077 6.45191 11.2021 7.88773 10.4008 9.05305Z" fill="#F9DEBB"/>
<path d="M9.90114 8.70022C9.37243 9.46895 8.62764 10.0636 7.76096 10.4091C6.89427 10.7545 5.9446 10.8352 5.03206 10.641C4.11951 10.4467 3.28505 9.98623 2.63421 9.31773C1.98338 8.64923 1.54539 7.80275 1.37563 6.88533C1.20586 5.96791 1.31195 5.02075 1.68048 4.16362C2.04901 3.30649 2.66342 2.57788 3.44604 2.06995C4.22865 1.56201 5.14432 1.29754 6.07723 1.30999C7.01015 1.32244 7.9184 1.61124 8.68718 2.13988C9.19767 2.49091 9.63401 2.93906 9.9713 3.45873C10.3086 3.97841 10.5402 4.55943 10.6529 5.16862C10.7657 5.77781 10.7573 6.40324 10.6283 7.00919C10.4993 7.61515 10.2522 8.18976 9.90114 8.70022Z" fill="#FFB347"/>
<path d="M7.00672 8.59351L7.49733 9.30426L7.61684 9.2225L7.1388 8.52432L7.28975 8.42368C7.36606 8.37321 7.43955 8.31862 7.5099 8.26015L7.99422 8.96461L8.11373 8.88284L7.61684 8.15951C7.76048 8.01333 7.87377 7.84018 7.9502 7.65003C7.97686 7.56455 8.02697 7.48827 8.09486 7.42988C8.17034 7.37327 8.2647 7.42988 8.40307 7.59971L8.53516 7.50536C8.35275 7.27263 8.11374 6.93927 7.54136 6.10272L7.40299 6.19707C7.78667 6.82606 7.95648 7.51794 7.52877 8.03371L6.2079 6.1153C6.49094 5.48632 6.67963 4.85733 6.2645 4.25979C6.10086 4.00019 5.84271 3.81438 5.54459 3.74161C5.24647 3.66884 4.93174 3.71481 4.66689 3.86982L4.16369 3.14648L4.04418 3.22826L4.54108 3.939L4.44674 4.00191C4.34952 4.06616 4.25893 4.13991 4.17628 4.22206L3.6668 3.48613L3.54729 3.5679L4.07564 4.33527C3.99117 4.45001 3.92536 4.57738 3.88065 4.71266C3.8564 4.79926 3.80585 4.87618 3.73598 4.9328C3.6605 4.98941 3.56616 4.93281 3.42778 4.76298L3.2894 4.86362C3.59923 5.24081 3.88695 5.63564 4.15111 6.04611L4.2832 5.95177C4.12937 5.73775 4.03695 5.48577 4.01588 5.22305C3.99482 4.96034 4.04593 4.69685 4.16369 4.46106L5.37135 6.20965C5.04428 6.96443 4.85558 7.55568 5.27071 8.1658C5.44974 8.44644 5.72991 8.64742 6.05313 8.72705C6.37634 8.80668 6.71781 8.75887 7.00672 8.59351ZM7.04446 8.39223L5.92486 6.76944C5.98147 6.61849 6.05067 6.46754 6.12614 6.304V6.26626L7.38412 8.15322C7.33094 8.2078 7.27185 8.25632 7.20798 8.29789C7.15578 8.33318 7.10114 8.3647 7.04446 8.39223ZM6.89979 8.43626C6.71698 8.47887 6.5253 8.4615 6.35313 8.38674C6.18095 8.31198 6.03741 8.18379 5.94373 8.02113C5.84253 7.85737 5.78376 7.67094 5.77278 7.47874C5.7618 7.28654 5.79894 7.09463 5.88083 6.9204L6.89979 8.43626ZM5.71729 5.40454L4.76123 4.00819C4.92785 3.95629 5.10692 3.96083 5.27069 4.0211C5.43446 4.08138 5.57377 4.19402 5.66698 4.34156C5.76743 4.49892 5.82493 4.67986 5.83376 4.86635C5.84259 5.05284 5.80243 5.23839 5.71729 5.40454ZM4.62285 4.06481L5.6544 5.56179C5.5915 5.71904 5.51601 5.88258 5.44053 6.0587L4.25805 4.34156C4.32028 4.26728 4.39221 4.2017 4.4719 4.14657C4.51946 4.1145 4.57001 4.08712 4.62285 4.06481Z" fill="#F9DEBB"/>
<g style="mix-blend-mode:overlay" opacity="0.23">
<path d="M10.4707 1.98274C10.7135 2.85379 10.7987 3.76121 10.7223 4.66222C10.3701 7.80716 6.94838 10.5936 3.62733 9.44881C2.22264 8.96459 0.983918 8.09224 0.0546875 6.93287C0.197834 7.86164 0.556223 8.74406 1.10123 9.50961C1.64623 10.2752 2.36274 10.9026 3.1935 11.3419C4.02426 11.7812 4.94624 12.02 5.88578 12.0394C6.82531 12.0588 7.75635 11.8582 8.60452 11.4535C9.45269 11.0489 10.1945 10.4515 10.7706 9.70909C11.3467 8.96666 11.7412 8.09978 11.9225 7.1777C12.1039 6.25562 12.067 5.30391 11.8149 4.39862C11.5628 3.49332 11.1025 2.65953 10.4707 1.96387V1.98274Z" fill="black"/>
</g>
</svg>
