<svg width="15" height="15" viewBox="0 0 15 15" fill="none" xmlns="http://www.w3.org/2000/svg">
<path d="M7.32393 0C5.87539 0 4.45939 0.427666 3.25497 1.22892C2.05056 2.03017 1.11183 3.16901 0.557504 4.50145C0.00317329 5.83388 -0.141865 7.30005 0.14073 8.71455C0.423326 10.129 1.12086 11.4283 2.14513 12.4481C3.1694 13.4679 4.4744 14.1624 5.8951 14.4438C7.3158 14.7252 8.7884 14.5808 10.1267 14.0288C11.4649 13.4769 12.6088 12.5423 13.4135 11.3431C14.2183 10.144 14.6479 8.73417 14.6479 7.29196C14.6441 5.35915 13.8713 3.50656 12.4986 2.13986C11.1259 0.773154 9.26521 0.00370626 7.32393 0ZM7.32393 13.4621C6.09824 13.4621 4.90009 13.1002 3.88097 12.4222C2.86185 11.7442 2.06754 10.7806 1.59849 9.65316C1.12944 8.52572 1.00672 7.28511 1.24584 6.08823C1.48496 4.89134 2.07518 3.79193 2.94187 2.92902C3.80856 2.06612 4.91279 1.47847 6.11492 1.2404C7.31705 1.00232 8.5631 1.12451 9.69548 1.59151C10.8279 2.05851 11.7957 2.84935 12.4767 3.86402C13.1576 4.87869 13.5211 6.07162 13.5211 7.29196C13.5192 8.9278 12.8657 10.4961 11.7039 11.6528C10.5421 12.8096 8.96695 13.4602 7.32393 13.4621ZM5.07041 7.29196C5.07041 7.76286 5.21923 8.22184 5.49578 8.60386C5.77233 8.98588 6.1626 9.27158 6.6113 9.4205C7.06001 9.56941 7.54439 9.57399 7.99585 9.43358C8.44731 9.29317 8.84296 9.01489 9.12674 8.63816C9.21751 8.52069 9.35081 8.44321 9.49817 8.42225C9.64554 8.40129 9.7953 8.43851 9.91547 8.52598C10.035 8.61524 10.114 8.74812 10.1352 8.89539C10.1563 9.04266 10.1178 9.19226 10.0281 9.31127C9.60247 9.87636 9.009 10.2938 8.33182 10.5044C7.65463 10.715 6.92805 10.7081 6.25499 10.4848C5.58194 10.2614 4.99654 9.83284 4.58171 9.25981C4.16688 8.68678 3.94366 7.99832 3.94366 7.29196C3.94366 6.58559 4.16688 5.89714 4.58171 5.3241C4.99654 4.75107 5.58194 4.32252 6.25499 4.09915C6.92805 3.87577 7.65463 3.86891 8.33182 4.07952C9.009 4.29014 9.60247 4.70755 10.0281 5.27264C10.1178 5.39166 10.1563 5.54125 10.1352 5.68852C10.114 5.83579 10.035 5.96867 9.91547 6.05793C9.7953 6.1454 9.64554 6.18262 9.49817 6.16166C9.35081 6.1407 9.21751 6.06322 9.12674 5.94575C8.84296 5.56902 8.44731 5.29074 7.99585 5.15033C7.54439 5.00992 7.06001 5.0145 6.6113 5.16342C6.1626 5.31233 5.77233 5.59803 5.49578 5.98005C5.21923 6.36207 5.07041 6.82105 5.07041 7.29196Z" fill="white"/>
</svg>
